<?xml version="1.0" standalone="no"?>
<!DOCTYPE svg PUBLIC "-//W3C//DTD SVG 20010904//EN"
 "http://www.w3.org/TR/2001/REC-SVG-20010904/DTD/svg10.dtd">
<svg version="1.0" xmlns="http://www.w3.org/2000/svg"
 width="700.000000pt" height="700.000000pt" viewBox="0 0 700.000000 700.000000"
 preserveAspectRatio="xMidYMid meet">
<metadata>
Created by potrace 1.14, written by Peter Selinger 2001-2017
</metadata>
<g transform="translate(0.000000,700.000000) scale(0.100000,-0.100000)"
fill="#000000" stroke="none">
<path d="M3937 5704 c-1 -1 -63 -4 -137 -8 -75 -4 -147 -8 -160 -10 -14 -3
-56 -7 -94 -11 -38 -4 -79 -8 -90 -10 -73 -12 -215 -36 -236 -40 -14 -3 -36
-7 -50 -10 -124 -23 -497 -130 -575 -164 -11 -5 -71 -30 -134 -56 -281 -116
-560 -275 -776 -442 -331 -257 -631 -597 -784 -888 -21 -41 -18 -122 7 -172
41 -80 113 -124 467 -286 78 -36 99 -41 160 -41 95 0 146 28 200 109 53 80
157 225 186 261 224 269 495 483 815 645 433 219 921 331 1444 331 169 0 381
-12 458 -27 9 -1 42 -6 72 -9 30 -4 78 -11 105 -16 28 -5 61 -11 75 -14 65
-11 272 -60 330 -78 244 -74 413 -137 576 -213 115 -54 184 -74 238 -69 39 4
108 32 138 56 25 21 215 332 226 370 20 74 -12 164 -83 226 -41 36 -259 141
-440 212 -136 54 -430 153 -480 164 -5 1 -16 5 -22 9 -7 5 -13 6 -13 3 0 -2
-15 0 -32 5 -36 11 -173 46 -210 53 -13 2 -54 11 -93 19 -38 9 -86 18 -105 21
-19 3 -46 8 -60 11 -13 2 -42 7 -65 10 -22 3 -51 8 -65 10 -14 3 -45 7 -70 10
-25 3 -63 7 -85 10 -93 11 -136 15 -250 21 -107 6 -384 11 -388 8z"/>
<path d="M3967 4374 c-1 -1 -45 -5 -97 -8 -52 -4 -111 -8 -130 -11 -19 -2 -55
-7 -80 -10 -507 -64 -1011 -276 -1375 -579 -72 -60 -257 -244 -305 -305 -61
-75 -151 -205 -171 -244 -55 -106 1 -229 134 -295 274 -136 332 -155 418 -138
66 14 101 39 148 109 19 29 37 54 40 57 3 3 19 23 36 45 135 182 380 378 620
495 202 98 440 172 630 196 22 3 50 7 63 10 97 20 508 21 617 0 11 -2 43 -7
70 -10 242 -34 484 -104 752 -220 71 -30 91 -35 152 -33 101 4 135 30 227 180
40 64 77 133 83 152 21 77 -18 167 -99 227 -63 46 -414 186 -590 235 -152 42
-205 55 -320 77 -155 31 -161 32 -246 41 -38 4 -78 9 -88 11 -61 11 -479 26
-489 18z"/>
<path d="M3940 3145 c-121 -18 -161 -25 -169 -30 -4 -2 -19 -6 -32 -8 -125
-23 -348 -115 -484 -200 -203 -127 -423 -362 -430 -459 -2 -23 1 -54 7 -68 17
-45 78 -97 161 -136 67 -32 93 -39 143 -39 74 0 110 22 169 102 136 187 392
341 664 398 155 32 401 37 531 10 14 -3 39 -8 55 -10 70 -12 187 -47 275 -80
116 -45 165 -51 216 -30 51 21 70 39 110 108 41 71 45 124 11 179 -30 50 -74
81 -170 118 -45 18 -91 35 -102 40 -24 9 -138 43 -145 42 -3 0 -15 4 -28 9
-12 5 -33 11 -45 13 -27 5 -178 33 -227 41 -68 13 -424 12 -510 0z"/>
<path d="M4288 2545 c-167 -42 -249 -226 -170 -384 98 -197 377 -195 480 4 20
40 26 64 26 120 -1 109 -53 194 -147 239 -63 30 -126 37 -189 21z"/>
<path d="M3939 2315 c-105 -28 -212 -113 -260 -207 -28 -56 -47 -147 -43 -211
2 -35 25 -118 56 -210 49 -145 52 -157 52 -257 0 -58 -2 -138 -6 -178 -4 -62
-2 -77 14 -97 13 -16 30 -25 48 -25 15 0 93 31 172 69 135 65 144 68 156 50
50 -68 113 -102 188 -100 90 2 154 43 195 123 24 47 29 131 10 166 -13 25 -20
20 124 89 136 65 179 93 183 116 9 46 -9 67 -113 137 -57 38 -127 92 -154 119
l-51 50 -49 -15 c-131 -39 -288 5 -378 105 -45 50 -85 148 -91 219 -2 37 -5
67 -6 68 0 1 -22 -4 -47 -11z"/>
</g>
</svg>
