<svg width="31" height="30" viewBox="0 0 31 30" fill="none" xmlns="http://www.w3.org/2000/svg">
<path fill-rule="evenodd" clip-rule="evenodd" d="M15.71 2.5C22.6136 2.5 28.21 8.09639 28.21 15C28.21 21.9035 22.6136 27.5 15.71 27.5C8.80645 27.5 3.20999 21.9035 3.20999 15C3.20999 8.09639 8.80645 2.5 15.71 2.5ZM16.9627 13.75H14.4627V21.25H16.9627V13.75ZM15.7227 8.4375C14.8113 8.4375 14.1502 9.09494 14.1502 9.98266C14.1502 10.9063 14.7939 11.5625 15.7227 11.5625C16.6154 11.5625 17.2752 10.9063 17.2752 10C17.2752 9.09494 16.6154 8.4375 15.7227 8.4375Z" fill="#F0F0F0"/>
</svg>
