<svg width="22" height="22" viewBox="0 0 22 22" fill="none" xmlns="http://www.w3.org/2000/svg">
<path fill-rule="evenodd" clip-rule="evenodd" d="M20.1663 11C20.1663 16.0626 16.0622 20.1666 10.9996 20.1666C5.93703 20.1666 1.83293 16.0626 1.83293 11C1.83293 5.93739 5.93703 1.83329 10.9996 1.83329C16.0622 1.83329 20.1663 5.93739 20.1663 11ZM10.7311 8.89813C11.0891 8.54018 11.0891 7.95974 10.7311 7.60178C10.3731 7.24383 9.79271 7.24383 9.43475 7.60178L6.7645 10.272C6.75075 10.2858 6.73737 10.2999 6.72453 10.3143C6.53543 10.4822 6.41626 10.7272 6.41626 11C6.41626 11.2728 6.53543 11.5177 6.72453 11.6856C6.73737 11.7 6.75075 11.7141 6.7645 11.7279L9.43475 14.3981C9.79271 14.7561 10.3731 14.7561 10.7311 14.3981C11.0891 14.0402 11.0891 13.4598 10.7311 13.1018L9.54594 11.9166H14.6663C15.1725 11.9166 15.5829 11.5062 15.5829 11C15.5829 10.4937 15.1725 10.0833 14.6663 10.0833H9.54594L10.7311 8.89813Z" fill="#040404"/>
</svg>
