<svg width="30" height="30" viewBox="0 0 30 30" fill="none" xmlns="http://www.w3.org/2000/svg">
<g clip-path="url(#clip0_145_1887)">
<path d="M15.0001 29.9998C23.2843 29.9998 30 23.2841 30 14.9999C30 6.71568 23.2843 0 15.0001 0C6.7159 0 0.000213623 6.71568 0.000213623 14.9999C0.000213623 23.2841 6.7159 29.9998 15.0001 29.9998Z" fill="#FDC20E"/>
<mask id="mask0_145_1887" style="mask-type:luminance" maskUnits="userSpaceOnUse" x="0" y="0" width="30" height="30">
<path d="M15.0001 29.9998C23.2843 29.9998 30 23.2841 30 14.9999C30 6.71568 23.2843 0 15.0001 0C6.7159 0 0.000213623 6.71568 0.000213623 14.9999C0.000213623 23.2841 6.7159 29.9998 15.0001 29.9998Z" fill="white"/>
</mask>
<g mask="url(#mask0_145_1887)">
<path d="M22.1836 24.2324C21.2167 22.402 15.0001 21.2534 15.0001 21.2534C15.0001 21.2534 8.78348 22.402 7.81659 24.2324C7.10188 26.7725 6.50405 30 6.50405 30H15.0001H23.4962C23.4962 30 23.0923 26.5394 22.1836 24.2324Z" fill="#F1C9A5"/>
<path d="M15.0001 21.2534C15.0001 21.2534 21.2167 22.402 22.1836 24.2324C23.0925 26.5394 23.4962 30 23.4962 30H15.0001V21.2534Z" fill="#E4B692"/>
<path d="M16.6925 17.5321H13.3077V23.1967H16.6925V17.5321Z" fill="#F1C9A5"/>
<path d="M16.6925 17.5321H15.0001V23.1967H16.6925V17.5321Z" fill="#E4B692"/>
<path opacity="0.1" d="M13.3077 20.157C13.6121 21.0309 14.8406 21.5317 15.7428 21.5317C16.0692 21.5317 16.3866 21.477 16.6925 21.3769V17.5321H13.3077V20.157Z" fill="#DDAC8C"/>
<path d="M19.3517 13.9578C19.3517 10.4197 17.4035 8.40778 15.0001 8.40778C12.5968 8.40778 10.6485 10.4197 10.6485 13.9578C10.6485 18.7168 12.5968 20.3644 15.0001 20.3644C17.4032 20.3644 19.3517 18.5185 19.3517 13.9578Z" fill="#F1C9A5"/>
<path d="M18.6893 16.4113C17.9004 16.3286 17.3678 15.4788 17.5015 14.514C17.6335 13.5483 18.3805 12.8313 19.1698 12.9134C19.9583 12.9954 20.49 13.845 20.357 14.8107C20.2246 15.7766 19.4782 16.4929 18.6893 16.4113Z" fill="#E4B692"/>
<path d="M9.67412 14.8109C9.54088 13.8453 10.0728 12.9957 10.8609 12.9136C11.6506 12.8313 12.3976 13.5483 12.53 14.5142C12.6631 15.479 12.1301 16.329 11.3418 16.4115C10.5527 16.4929 9.80633 15.7766 9.67412 14.8109Z" fill="#F1C9A5"/>
<path d="M19.3517 13.9578C19.3517 10.4197 17.4035 8.40778 15.0001 8.40778V20.3644C17.4032 20.3644 19.3517 18.5185 19.3517 13.9578Z" fill="#E4B692"/>
<path d="M22.1836 24.2324C21.6187 23.1636 19.2655 22.3278 17.4041 21.817L15.0001 24.5648L12.5961 21.817C10.7347 22.3278 8.38127 23.1636 7.81659 24.2324C7.10188 26.7725 6.50405 30 6.50405 30H15.0001H23.4962C23.4962 30 23.0923 26.5394 22.1836 24.2324Z" fill="#009EFF"/>
<path d="M11.3487 15.6514C11.3487 15.6514 14.4228 13.5535 14.7846 12.3964C14.7483 13.4451 14.7846 14.3855 14.7846 14.3855C14.7846 14.3855 17.7866 11.4199 17.4971 8.9967C14.0975 7.18808 11.4573 9.28598 10.8422 10.2624C10.2272 11.2388 10.0826 13.9516 11.3487 15.6514Z" fill="#262421"/>
<path d="M17.063 9.97292C17.063 9.97292 18.4738 11.6732 18.763 15.0728C19.7757 13.5898 20.8607 9.28578 17.4971 8.9967C17.2076 9.539 17.063 9.97292 17.063 9.97292Z" fill="#262421"/>
<path d="M18.108 25.1425L16.2271 23.3942L14.997 24.5646L17.0412 21.6461C17.0412 21.6461 17.7079 21.7199 17.9449 22.446C18.0191 23.5871 18.108 25.1425 18.108 25.1425Z" fill="white"/>
<path d="M14.3353 30H15.0001V24.5648L14.3353 23.9351V30Z" fill="#27AAE1"/>
<path d="M11.886 25.1425L13.7669 23.3942L14.997 24.5646L12.9528 21.6461C12.9528 21.6461 12.2861 21.7199 12.0491 22.446C11.9749 23.5871 11.886 25.1425 11.886 25.1425Z" fill="white"/>
</g>
</g>
<defs>
<clipPath id="clip0_145_1887">
<rect width="30" height="30" fill="white"/>
</clipPath>
</defs>
</svg>
