<svg width="24" height="30" viewBox="0 0 24 30" fill="none" xmlns="http://www.w3.org/2000/svg">
<path d="M-2.25 10C-2.94035 10 -3.5 10.5597 -3.5 11.25V21.25C-3.5 24.7017 -0.701775 27.5 2.75 27.5H15.25C18.7017 27.5 21.5 24.7017 21.5 21.25V11.25C21.5 10.5597 20.9404 10 20.25 10H-2.25Z" fill="#4296FF"/>
<path d="M2.75 2.5C3.44035 2.5 4 3.05965 4 3.75V5H14V3.75C14 3.05965 14.5596 2.5 15.25 2.5C15.9404 2.5 16.5 3.05965 16.5 3.75V5.12502C19.3528 5.70411 21.5 8.2263 21.5 11.25C21.5 11.9403 20.9404 12.5 20.25 12.5H-2.25C-2.94035 12.5 -3.5 11.9403 -3.5 11.25C-3.5 8.2263 -1.3528 5.70411 1.5 5.12502V3.75C1.5 3.05965 2.05965 2.5 2.75 2.5Z" fill="#152C70"/>
<path fill-rule="evenodd" clip-rule="evenodd" d="M2.75 16.25C2.75 15.5596 3.30965 15 4 15H14C14.6904 15 15.25 15.5596 15.25 16.25C15.25 16.9404 14.6904 17.5 14 17.5H4C3.30965 17.5 2.75 16.9404 2.75 16.25Z" fill="#152C70"/>
<path fill-rule="evenodd" clip-rule="evenodd" d="M2.75 21.25C2.75 20.5596 3.30965 20 4 20H9C9.69037 20 10.25 20.5596 10.25 21.25C10.25 21.9404 9.69037 22.5 9 22.5H4C3.30965 22.5 2.75 21.9404 2.75 21.25Z" fill="#152C70"/>
</svg>
