<svg width="24" height="30" viewBox="0 0 24 30" fill="none" xmlns="http://www.w3.org/2000/svg">
<g clip-path="url(#clip0_185_1865)">
<path d="M20.5406 6.96562C20.3935 6.77577 20.179 6.64966 19.9416 6.6133C19.7042 6.57693 19.4618 6.6331 19.2646 6.7702C19.0674 6.90731 18.9303 7.11489 18.8816 7.35012C18.833 7.58534 18.8765 7.83027 19.0031 8.03437C20.0958 9.60428 20.8036 11.4093 21.0693 13.3035C21.335 15.1977 21.1512 17.1278 20.5327 18.9378C19.9141 20.7477 18.8783 22.3867 17.5089 23.7221C16.1395 25.0575 14.475 26.0518 12.6501 26.6247C10.8251 27.1975 8.89098 27.3328 7.00407 27.0196C5.11716 26.7063 3.33048 25.9533 1.78853 24.8216C0.246583 23.6898 -1.00733 22.211 -1.87179 20.5047C-2.73624 18.7985 -3.18696 16.9127 -3.1875 15C-3.17568 12.3775 -2.32345 9.82796 -0.75591 7.72553C0.81163 5.6231 3.0119 4.07859 5.52188 3.31874C5.64007 3.28366 5.75019 3.22563 5.84596 3.14799C5.94172 3.07034 6.02126 2.97459 6.08002 2.86621C6.13878 2.75783 6.17562 2.63893 6.18843 2.51631C6.20124 2.39369 6.18978 2.26975 6.15469 2.15156C6.1196 2.03337 6.06158 1.92324 5.98394 1.82748C5.90629 1.73171 5.81054 1.65218 5.70216 1.59342C5.59377 1.53465 5.47488 1.49782 5.35226 1.485C5.22964 1.47219 5.10569 1.48366 4.9875 1.51874C2.48782 2.26292 0.244334 3.6876 -1.4922 5.63354C-3.22873 7.57949 -4.38989 9.97002 -4.84589 12.538C-5.30189 15.1059 -5.03477 17.7501 -4.07438 20.1749C-3.11399 22.5998 -1.49818 24.7097 0.59247 26.2691C2.68311 27.8284 5.16621 28.7755 7.76423 29.0047C10.3623 29.2339 12.9728 28.7361 15.3042 27.5669C17.6355 26.3977 19.5958 24.6032 20.9659 22.3839C22.336 20.1647 23.0619 17.6081 23.0625 15C23.0677 12.1263 22.1871 9.32084 20.5406 6.96562Z" fill="#FF3700"/>
<path d="M12.4781 3.31875C13.9397 3.76222 15.3042 4.47791 16.5 5.42813C16.5967 5.50446 16.7074 5.56101 16.8259 5.59454C16.9444 5.62808 17.0683 5.63795 17.1906 5.62358C17.3129 5.60922 17.4312 5.5709 17.5387 5.51083C17.6462 5.45075 17.7409 5.37008 17.8172 5.27344C17.8935 5.1768 17.9501 5.06606 17.9836 4.94756C18.0171 4.82907 18.027 4.70512 18.0126 4.58281C17.9983 4.4605 17.96 4.34221 17.8999 4.23471C17.8398 4.1272 17.7591 4.03258 17.6625 3.95625C16.2693 2.85297 14.6783 2.02567 12.975 1.51875C12.7363 1.44789 12.4792 1.47475 12.2604 1.59343C12.0415 1.7121 11.8787 1.91287 11.8078 2.15157C11.737 2.39026 11.7638 2.64733 11.8825 2.86622C12.0012 3.08511 12.2019 3.24789 12.4406 3.31875H12.4781ZM8.33438 2.54063C8.42551 2.62344 8.53014 2.69003 8.64376 2.7375C8.75597 2.7871 8.87731 2.81272 9.00001 2.81272C9.1227 2.81272 9.24404 2.7871 9.35626 2.7375C9.46978 2.68986 9.57439 2.62329 9.66563 2.54063C9.75252 2.45303 9.82126 2.34914 9.86792 2.23492C9.91457 2.12069 9.93822 1.99838 9.93751 1.875C9.93405 1.62678 9.83694 1.38903 9.66563 1.20938C9.55739 1.0965 9.42263 1.01249 9.27362 0.965007C9.12462 0.917522 8.9661 0.908066 8.81251 0.937503C8.75381 0.947898 8.69695 0.96685 8.64376 0.993753C8.58393 1.01406 8.52715 1.04245 8.47501 1.07813L8.33438 1.19063C8.24903 1.27979 8.18213 1.38492 8.13751 1.5C8.08701 1.61852 8.06147 1.74618 8.06251 1.875C8.06399 1.99751 8.08947 2.11854 8.13751 2.23125C8.18515 2.34478 8.25172 2.44939 8.33438 2.54063ZM15.2906 8.70938C15.115 8.53477 14.8774 8.43676 14.6297 8.43676C14.382 8.43676 14.1444 8.53477 13.9688 8.70938L9.00001 13.6781L4.04063 8.70938C3.86129 8.55579 3.63059 8.47554 3.39464 8.48465C3.1587 8.49376 2.93488 8.59157 2.76792 8.75854C2.60095 8.9255 2.50314 9.14932 2.49403 9.38526C2.48491 9.62121 2.56517 9.85191 2.71876 10.0313L7.67813 15L2.70938 19.9594C2.61124 20.0434 2.53154 20.1468 2.47526 20.2632C2.41899 20.3795 2.38737 20.5062 2.38238 20.6353C2.37739 20.7644 2.39915 20.8931 2.44628 21.0134C2.49342 21.1337 2.56491 21.243 2.65627 21.3344C2.74764 21.4257 2.8569 21.4972 2.9772 21.5443C3.09751 21.5915 3.22626 21.6132 3.35537 21.6083C3.48448 21.6033 3.61117 21.5716 3.72748 21.5154C3.84379 21.4591 3.94721 21.3794 4.03126 21.2813L9.00001 16.3219L13.9594 21.2813C14.1387 21.4348 14.3694 21.5151 14.6054 21.506C14.8413 21.4969 15.0651 21.3991 15.2321 21.2321C15.3991 21.0651 15.4969 20.8413 15.506 20.6054C15.5151 20.3694 15.4348 20.1387 15.2813 19.9594L10.3219 15L15.2813 10.0406C15.3697 9.9541 15.4402 9.8509 15.4886 9.73699C15.537 9.62308 15.5624 9.50072 15.5633 9.37696C15.5641 9.25319 15.5405 9.13048 15.4937 9.01591C15.4469 8.90133 15.3779 8.79715 15.2906 8.70938Z" fill="#FF3700"/>
</g>
<defs>
<clipPath id="clip0_185_1865">
<rect width="30" height="30" fill="white" transform="translate(-6)"/>
</clipPath>
</defs>
</svg>
