<svg width="30" height="30" viewBox="0 0 30 30" fill="none" xmlns="http://www.w3.org/2000/svg">
<g clip-path="url(#clip0_5_528)">
<path d="M27.5 5V8.75C27.5 9.41305 27.2366 10.0489 26.7678 10.5178C26.2989 10.9866 25.6631 11.25 25 11.25H18.75C18.087 11.25 17.4511 10.9866 16.9822 10.5178C16.5134 10.0489 16.25 9.41305 16.25 8.75V5C16.25 4.33696 16.5134 3.70107 16.9822 3.23223C17.4511 2.76339 18.087 2.5 18.75 2.5H25C25.6631 2.5 26.2989 2.76339 26.7678 3.23223C27.2366 3.70107 27.5 4.33696 27.5 5ZM11.25 18.75H5C4.33696 18.75 3.70107 19.0134 3.23223 19.4822C2.76339 19.9511 2.5 20.587 2.5 21.25V25C2.5 25.6631 2.76339 26.2989 3.23223 26.7678C3.70107 27.2366 4.33696 27.5 5 27.5H11.25C11.913 27.5 12.5489 27.2366 13.0178 26.7678C13.4866 26.2989 13.75 25.6631 13.75 25V21.25C13.75 20.587 13.4866 19.9511 13.0178 19.4822C12.5489 19.0134 11.913 18.75 11.25 18.75Z" fill="#00E7FF"/>
<g filter="url(#filter0_d_5_528)">
<path d="M13.75 5V13.75C13.75 14.413 13.4866 15.0489 13.0178 15.5178C12.5489 15.9866 11.913 16.25 11.25 16.25H5C4.33696 16.25 3.70107 15.9866 3.23223 15.5178C2.76339 15.0489 2.5 14.413 2.5 13.75V5C2.5 4.33696 2.76339 3.70107 3.23223 3.23223C3.70107 2.76339 4.33696 2.5 5 2.5H11.25C11.913 2.5 12.5489 2.76339 13.0178 3.23223C13.4866 3.70107 13.75 4.33696 13.75 5ZM25 13.75H18.75C18.087 13.75 17.4511 14.0134 16.9822 14.4822C16.5134 14.9511 16.25 15.587 16.25 16.25V25C16.25 25.6631 16.5134 26.2989 16.9822 26.7678C17.4511 27.2366 18.087 27.5 18.75 27.5H25C25.6631 27.5 26.2989 27.2366 26.7678 26.7678C27.2366 26.2989 27.5 25.6631 27.5 25V16.25C27.5 15.587 27.2366 14.9511 26.7678 14.4822C26.2989 14.0134 25.6631 13.75 25 13.75Z" fill="#F0F0F0"/>
</g>
</g>
<defs>
<filter id="filter0_d_5_528" x="-1.5" y="-0.5" width="33" height="33" filterUnits="userSpaceOnUse" color-interpolation-filters="sRGB">
<feFlood flood-opacity="0" result="BackgroundImageFix"/>
<feColorMatrix in="SourceAlpha" type="matrix" values="0 0 0 0 0 0 0 0 0 0 0 0 0 0 0 0 0 0 127 0" result="hardAlpha"/>
<feOffset dy="1"/>
<feGaussianBlur stdDeviation="2"/>
<feComposite in2="hardAlpha" operator="out"/>
<feColorMatrix type="matrix" values="0 0 0 0 0 0 0 0 0 0 0 0 0 0 0 0 0 0 0.25 0"/>
<feBlend mode="normal" in2="BackgroundImageFix" result="effect1_dropShadow_5_528"/>
<feBlend mode="normal" in="SourceGraphic" in2="effect1_dropShadow_5_528" result="shape"/>
</filter>
<clipPath id="clip0_5_528">
<rect width="30" height="30" fill="white"/>
</clipPath>
</defs>
</svg>
