<svg width="30" height="30" viewBox="0 0 30 30" fill="none" xmlns="http://www.w3.org/2000/svg">
<g clip-path="url(#clip0_5_602)">
<path d="M12.9021 14.33C16.8591 14.33 20.0669 11.1222 20.0669 7.16513C20.0669 3.20808 16.8591 0.000259399 12.9021 0.000259399C8.945 0.000259399 5.73718 3.20808 5.73718 7.16513C5.73718 11.1222 8.945 14.33 12.9021 14.33Z" fill="black"/>
<path d="M3.61693 27.2279L8.65843 28.556C10.8451 29.1313 14.3671 29.0639 16.5299 28.404L18.5687 27.7788C19.7147 29.1349 21.4246 29.9997 23.3352 29.9997C26.7763 29.9997 29.5762 27.1999 29.5762 23.7588C29.5762 20.3167 26.7763 17.5169 23.3352 17.5169C22.7521 17.5169 22.1903 17.6035 21.6549 17.7534C20.3611 16.1888 18.6999 15.0044 16.6585 14.3398C15.4695 15.0376 14.0921 15.4443 12.6167 15.4443C11.1346 15.4443 9.74943 15.0335 8.55675 14.3295C4.74528 15.5237 2.04607 18.4216 0.630835 22.2149C-0.161342 24.3336 1.43027 26.652 3.61693 27.2279ZM23.3192 18.337C26.2928 18.337 28.703 20.7473 28.703 23.722C28.703 26.6956 26.2928 29.1064 23.3192 29.1064C20.3455 29.1064 17.9347 26.6961 17.9347 23.722C17.9353 20.7473 20.345 18.337 23.3192 18.337Z" fill="black"/>
<path d="M20.304 26.4767C20.4934 26.6853 20.7533 26.7901 21.0147 26.7901C21.2461 26.7901 21.4796 26.707 21.6637 26.5384L23.3186 25.0257L24.973 26.5384C25.1577 26.707 25.3906 26.7901 25.622 26.7901C25.8824 26.7901 26.1423 26.6847 26.3327 26.4767C26.6912 26.085 26.6637 25.4755 26.2715 25.117L24.7448 23.721L26.2715 22.3249C26.6637 21.9664 26.6912 21.3579 26.3327 20.9652C25.9743 20.5725 25.3657 20.546 24.973 20.904L23.3186 22.4178L21.6637 20.904C21.271 20.5455 20.663 20.573 20.304 20.9652C19.9455 21.3579 19.9725 21.9664 20.3652 22.3249L21.8925 23.721L20.3652 25.117C19.973 25.4755 19.946 26.085 20.304 26.4767Z" fill="#D01E1E"/>
</g>
<defs>
<clipPath id="clip0_5_602">
<rect width="30" height="30" fill="white"/>
</clipPath>
</defs>
</svg>
