<svg width="31" height="30" viewBox="0 0 31 30" fill="none" xmlns="http://www.w3.org/2000/svg">
<path d="M11.8532 14.9998C14.6939 14.9998 16.9963 12.6974 16.9963 9.85669C16.9963 7.01597 14.6939 4.71364 11.8532 4.71364C9.01247 4.71364 6.71014 7.01597 6.71014 9.85669C6.71014 12.6974 9.01247 14.9998 11.8532 14.9998ZM15.4533 16.2855H14.7823C13.8903 16.6954 12.8979 16.9284 11.8532 16.9284C10.8085 16.9284 9.82009 16.6954 8.92407 16.2855H8.25306C5.2717 16.2855 2.85285 18.7044 2.85285 21.6857V23.3572C2.85285 24.422 3.71672 25.2859 4.7815 25.2859H15.827C15.7306 25.0126 15.6904 24.7233 15.7226 24.43L15.9958 21.983L16.044 21.5371L16.3614 21.2196L19.4673 18.1137C18.4829 17.0007 17.0565 16.2855 15.4533 16.2855ZM17.2735 22.1237L17.0003 24.5747C16.9561 24.9845 17.3016 25.3301 17.7074 25.2819L20.1544 25.0086L25.6953 19.4678L22.8143 16.5869L17.2735 22.1237ZM28.2869 15.5181L26.7641 13.9953C26.3904 13.6216 25.7796 13.6216 25.406 13.9953L23.8872 15.5141L23.7224 15.6789L26.6073 18.5598L28.2869 16.8802C28.6605 16.5025 28.6606 15.8958 28.2869 15.5181Z" fill="black"/>
</svg>
