<svg width="25" height="25" viewBox="0 0 25 25" fill="none" xmlns="http://www.w3.org/2000/svg">
<g clip-path="url(#clip0_27_389)">
<path d="M12.5 2.08333C10.0194 2.07397 7.61692 2.95015 5.72475 4.55423C3.83259 6.1583 2.57497 8.38497 2.17817 10.8336C1.78136 13.2823 2.27141 15.7922 3.56016 17.9117C4.8489 20.0312 6.85174 21.6213 9.20832 22.3958C9.72915 22.4792 9.89582 22.1562 9.89582 21.875V20.1146C7.0104 20.7396 6.39582 18.75 6.39582 18.75C6.20128 18.103 5.77957 17.5481 5.20832 17.1875C4.2604 16.5417 5.28124 16.5625 5.28124 16.5625C5.60821 16.6048 5.9214 16.7205 6.19739 16.9008C6.47337 17.0812 6.70501 17.3216 6.87498 17.6042C7.16434 18.1187 7.64511 18.4981 8.21275 18.66C8.7804 18.8219 9.38901 18.7532 9.90624 18.4687C9.95369 17.9407 10.1861 17.4463 10.5625 17.0729C8.33332 16.8437 5.85415 15.9479 5.85415 11.9792C5.82402 10.939 6.19727 9.92751 6.89582 9.15624C6.57867 8.25982 6.61593 7.2761 6.99998 6.40624C6.99998 6.40624 7.87499 6.12499 9.86457 7.44791C11.5704 6.98934 13.3671 6.98934 15.0729 7.44791C17.0625 6.10416 17.9375 6.40624 17.9375 6.40624C18.3215 7.2761 18.3588 8.25982 18.0417 9.15624C18.7402 9.92751 19.1134 10.939 19.0833 11.9792C19.0833 15.9583 16.6458 16.8333 14.3229 17.0937C14.5731 17.3452 14.7666 17.6472 14.8906 17.9796C15.0145 18.3119 15.066 18.6669 15.0417 19.0208V21.875C15.0417 22.1562 15.2083 22.4896 15.7396 22.3958C18.0918 21.6227 20.0918 20.0369 21.3808 17.9228C22.6698 15.8087 23.1636 13.3046 22.7737 10.8594C22.3837 8.41422 21.1354 6.18792 19.2528 4.57967C17.3701 2.97142 14.9761 2.08642 12.5 2.08333Z" fill="#4078C0"/>
</g>
<defs>
<clipPath id="clip0_27_389">
<rect width="25" height="25" fill="white"/>
</clipPath>
</defs>
</svg>
