<svg width="277" height="154" viewBox="0 0 277 154" fill="none" xmlns="http://www.w3.org/2000/svg">
<g clip-path="url(#clip0_19_2319)">
<path d="M178.971 127.129H24.6495C23.7462 127.128 22.8802 126.7 22.2415 125.94C21.6028 125.18 21.2435 124.15 21.2424 123.075V16.1775C21.2434 15.1027 21.6027 14.0723 22.2415 13.3122C22.8802 12.5522 23.7462 12.1247 24.6495 12.1235H178.971C179.875 12.1248 180.741 12.5523 181.379 13.3123C182.018 14.0723 182.377 15.1027 182.379 16.1775V123.075C182.377 124.15 182.018 125.18 181.379 125.94C180.741 126.7 179.875 127.127 178.971 127.129Z" fill="#E6E6E6"/>
<path d="M188.591 142.089H15.0294V5.44633C15.0306 4.24507 15.4321 3.09341 16.146 2.24399C16.8599 1.39457 17.8278 0.91677 18.8374 0.915405H184.783C185.793 0.91677 186.761 1.39457 187.475 2.24399C188.189 3.09341 188.59 4.24507 188.591 5.44633V142.089ZM15.8311 141.135H187.79V5.44633C187.789 4.49795 187.472 3.58872 186.908 2.91812C186.345 2.24752 185.581 1.87032 184.783 1.86928H18.8374C18.0403 1.87032 17.2762 2.24752 16.7126 2.91812C16.149 3.58872 15.832 4.49795 15.8311 5.44633V141.135Z" fill="#CCCCCC"/>
<path d="M101.81 8.78487C102.696 8.78487 103.414 7.93074 103.414 6.87712C103.414 5.82349 102.696 4.96936 101.81 4.96936C100.925 4.96936 100.207 5.82349 100.207 6.87712C100.207 7.93074 100.925 8.78487 101.81 8.78487Z" fill="#E6E6E6"/>
<path d="M140.491 104.443H63.1298C62.2265 104.442 61.3605 104.014 60.7217 103.254C60.083 102.494 59.7237 101.464 59.7227 100.389V38.8638C59.7237 37.789 60.083 36.7586 60.7217 35.9986C61.3605 35.2386 62.2265 34.8111 63.1298 34.8098H140.491C141.394 34.8111 142.26 35.2386 142.899 35.9986C143.538 36.7586 143.897 37.789 143.898 38.8638V100.389C143.897 101.464 143.538 102.494 142.899 103.254C142.26 104.014 141.394 104.442 140.491 104.443Z" fill="white"/>
<path d="M75.8563 61.0412C75.2221 61.0412 74.6021 60.8174 74.0748 60.3981C73.5475 59.9789 73.1365 59.383 72.8938 58.6858C72.6511 57.9886 72.5875 57.2214 72.7113 56.4813C72.835 55.7412 73.1404 55.0613 73.5889 54.5277C74.0373 53.9941 74.6087 53.6307 75.2307 53.4835C75.8528 53.3363 76.4975 53.4118 77.0835 53.7006C77.6694 53.9894 78.1703 54.4784 78.5226 55.1059C78.875 55.7333 79.063 56.471 79.063 57.2257C79.0621 58.2372 78.7239 59.2071 78.1227 59.9224C77.5216 60.6377 76.7065 61.04 75.8563 61.0412Z" fill="#CCCCCC"/>
<path d="M75.8563 73.4416C75.2221 73.4416 74.6021 73.2178 74.0748 72.7985C73.5475 72.3793 73.1365 71.7834 72.8938 71.0862C72.6511 70.389 72.5875 69.6218 72.7113 68.8817C72.835 68.1415 73.1404 67.4617 73.5889 66.9281C74.0373 66.3945 74.6087 66.0311 75.2307 65.8839C75.8528 65.7366 76.4975 65.8122 77.0835 66.101C77.6694 66.3898 78.1703 66.8788 78.5226 67.5063C78.875 68.1337 79.063 68.8714 79.063 69.6261C79.0621 70.6376 78.7239 71.6075 78.1227 72.3228C77.5216 73.038 76.7065 73.4404 75.8563 73.4416Z" fill="#00E7FF"/>
<path d="M75.8563 85.8421C75.2221 85.8421 74.6021 85.6183 74.0748 85.199C73.5475 84.7798 73.1365 84.1839 72.8938 83.4867C72.6511 82.7895 72.5875 82.0223 72.7113 81.2822C72.835 80.5421 73.1404 79.8622 73.5889 79.3286C74.0373 78.795 74.6087 78.4316 75.2307 78.2844C75.8528 78.1372 76.4975 78.2127 77.0835 78.5015C77.6694 78.7903 78.1703 79.2793 78.5226 79.9068C78.875 80.5342 79.063 81.2719 79.063 82.0266C79.0621 83.0381 78.7239 84.008 78.1227 84.7233C77.5216 85.4386 76.7065 85.8409 75.8563 85.8421Z" fill="#00E7FF"/>
<path d="M91.0881 54.1256C90.3971 54.1256 89.7344 54.4522 89.2458 55.0336C88.7572 55.615 88.4827 56.4035 88.4827 57.2257C88.4827 58.0479 88.7572 58.8364 89.2458 59.4178C89.7344 59.9992 90.3971 60.3258 91.0881 60.3258H128.366C129.057 60.3258 129.72 59.9992 130.208 59.4178C130.697 58.8364 130.971 58.0479 130.971 57.2257C130.971 56.4035 130.697 55.615 130.208 55.0336C129.72 54.4522 129.057 54.1256 128.366 54.1256H91.0881Z" fill="#CCCCCC"/>
<path d="M91.0881 66.526C90.3971 66.526 89.7344 66.8526 89.2458 67.434C88.7572 68.0154 88.4827 68.8039 88.4827 69.6261C88.4827 70.4483 88.7572 71.2368 89.2458 71.8182C89.7344 72.3996 90.3971 72.7262 91.0881 72.7262H128.366C129.057 72.7262 129.72 72.3996 130.208 71.8182C130.697 71.2368 130.971 70.4483 130.971 69.6261C130.971 68.8039 130.697 68.0154 130.208 67.434C129.72 66.8526 129.057 66.526 128.366 66.526H91.0881Z" fill="#00E7FF"/>
<path d="M91.0881 78.9264C90.3971 78.9264 89.7344 79.253 89.2458 79.8344C88.7572 80.4158 88.4827 81.2043 88.4827 82.0265C88.4827 82.8487 88.7572 83.6372 89.2458 84.2186C89.7344 84.8 90.3971 85.1266 91.0881 85.1266H128.366C129.057 85.1266 129.72 84.8 130.208 84.2186C130.697 83.6372 130.971 82.8487 130.971 82.0265C130.971 81.2043 130.697 80.4158 130.208 79.8344C129.72 79.253 129.057 78.9264 128.366 78.9264H91.0881Z" fill="#00E7FF"/>
<path d="M191.598 135.889H184.583V134.458C184.583 133.952 184.414 133.467 184.113 133.109C183.813 132.752 183.405 132.551 182.98 132.551H174.562C174.137 132.551 173.729 132.752 173.428 133.109C173.128 133.467 172.959 133.952 172.959 134.458V135.889H171.756V134.458C171.756 133.952 171.587 133.467 171.287 133.109C170.986 132.752 170.578 132.551 170.153 132.551H161.735C161.31 132.551 160.902 132.752 160.602 133.109C160.301 133.467 160.132 133.952 160.132 134.458V135.889H158.93V134.458C158.93 133.952 158.761 133.467 158.46 133.109C158.159 132.752 157.751 132.551 157.326 132.551H148.909C148.483 132.551 148.076 132.752 147.775 133.109C147.474 133.467 147.305 133.952 147.305 134.458V135.889H146.103V134.458C146.103 133.952 145.934 133.467 145.633 133.109C145.333 132.752 144.925 132.551 144.499 132.551H136.082C135.657 132.551 135.249 132.752 134.948 133.109C134.648 133.467 134.479 133.952 134.479 134.458V135.889H133.276V134.458C133.276 133.952 133.107 133.467 132.806 133.109C132.506 132.752 132.098 132.551 131.673 132.551H123.255C122.83 132.551 122.422 132.752 122.121 133.109C121.821 133.467 121.652 133.952 121.652 134.458V135.889H120.449V134.458C120.449 133.952 120.28 133.467 119.98 133.109C119.679 132.752 119.271 132.551 118.846 132.551H110.428C110.003 132.551 109.595 132.752 109.295 133.109C108.994 133.467 108.825 133.952 108.825 134.458V135.889H107.623V134.458C107.623 133.952 107.454 133.467 107.153 133.109C106.852 132.752 106.444 132.551 106.019 132.551H97.6017C97.1765 132.551 96.7686 132.752 96.4679 133.109C96.1673 133.467 95.9983 133.952 95.9983 134.458V135.889H94.7958V134.458C94.7958 133.952 94.6269 133.467 94.3262 133.109C94.0255 132.752 93.6177 132.551 93.1925 132.551H84.7749C84.3497 132.551 83.9419 132.752 83.6412 133.109C83.3405 133.467 83.1716 133.952 83.1716 134.458V135.889H81.9691V134.458C81.9691 133.952 81.8002 133.467 81.4995 133.109C81.1988 132.752 80.791 132.551 80.3657 132.551H71.9482C71.5229 132.551 71.1151 132.752 70.8144 133.109C70.5138 133.467 70.3448 133.952 70.3448 134.458V135.889H69.1423V134.458C69.1423 133.952 68.9734 133.467 68.6727 133.109C68.372 132.752 67.9642 132.551 67.539 132.551H59.1214C58.6962 132.551 58.2884 132.752 57.9877 133.109C57.687 133.467 57.5181 133.952 57.5181 134.458V135.889H56.3156V134.458C56.3156 133.952 56.1466 133.467 55.846 133.109C55.5453 132.752 55.1375 132.551 54.7122 132.551H46.2947C45.8694 132.551 45.4616 132.752 45.1609 133.109C44.8602 133.467 44.6913 133.952 44.6913 134.458V135.889H43.4888V134.458C43.4888 133.952 43.3199 133.467 43.0192 133.109C42.7185 132.752 42.3107 132.551 41.8855 132.551H33.4679C33.0427 132.551 32.6349 132.752 32.3342 133.109C32.0335 133.467 31.8646 133.952 31.8646 134.458V135.889H30.6621V134.458C30.6621 133.952 30.4931 133.467 30.1925 133.109C29.8918 132.752 29.484 132.551 29.0587 132.551H20.6412C20.2159 132.551 19.8081 132.752 19.5074 133.109C19.2067 133.467 19.0378 133.952 19.0378 134.458V135.889H12.0232C8.99339 135.889 6.0877 137.321 3.94532 139.87C1.80294 142.42 0.599365 145.877 0.599365 149.482C0.599365 150.557 0.958328 151.588 1.59728 152.349C2.23624 153.109 3.10285 153.536 4.00647 153.536H199.614C200.518 153.536 201.385 153.109 202.024 152.349C202.663 151.588 203.022 150.557 203.022 149.482C203.022 145.877 201.818 142.42 199.676 139.87C197.533 137.321 194.628 135.889 191.598 135.889Z" fill="#3F3D56"/>
</g>
<g clip-path="url(#clip1_19_2319)">
<path d="M243.866 137.46H210.516C205.513 137.46 201.444 133.228 201.444 128.026V36.337C201.444 31.1348 205.513 26.9025 210.516 26.9025H243.866C248.868 26.9025 252.938 31.1348 252.938 36.337C253.558 73.1563 254.617 114.388 252.938 128.026C252.938 133.228 248.868 137.46 243.866 137.46Z" fill="#3F3D56"/>
<path d="M253.402 60.6285C253.191 60.6285 253.019 60.8075 253.019 61.0277V73.7997C253.019 74.0198 253.191 74.1988 253.402 74.1988C253.614 74.1988 253.786 74.0198 253.786 73.7997V61.0277C253.786 60.8075 253.614 60.6285 253.402 60.6285Z" fill="#3F3D56"/>
<path d="M249.802 37.4882L252.074 128.024C252.074 132.552 248.685 136.256 244.4 136.543H244.398C244.335 136.547 244.272 136.551 244.207 136.553C244.093 136.559 243.98 136.561 243.865 136.561C243.865 136.561 243.443 136.529 242.671 136.47C241.892 136.41 240.758 136.32 239.344 136.202C238.92 136.168 238.473 136.13 238.001 136.09C237.061 136.011 236.028 135.923 234.921 135.823C234.48 135.785 234.023 135.743 233.557 135.701C231.174 135.488 228.504 135.238 225.689 134.955C225.213 134.909 224.734 134.861 224.25 134.811C224.124 134.797 202.307 129.094 202.307 128.024V36.3371C202.307 31.6214 205.982 27.7998 210.516 27.7998H215.417C216.2 27.7998 216.83 28.4344 216.897 29.2466C216.902 29.3005 216.908 29.3544 216.918 29.4083C217.06 30.2245 217.779 30.7932 218.578 30.7932H235.804C236.602 30.7932 237.322 30.2245 237.464 29.4083C237.473 29.3544 237.479 29.3005 237.485 29.2466C237.552 28.4344 238.181 27.7998 238.964 27.7998H243.865C248.399 27.7998 249.802 32.7725 249.802 37.4882Z" fill="white"/>
<path d="M201.252 51.0496C201.04 51.0496 200.868 51.2286 200.868 51.4487V54.6417C200.868 54.8618 201.04 55.0408 201.252 55.0408C201.463 55.0408 201.635 54.8618 201.635 54.6417V51.4487C201.635 51.2286 201.463 51.0496 201.252 51.0496Z" fill="#3F3D56"/>
<path d="M201.252 60.6285C201.04 60.6285 200.868 60.8075 200.868 61.0277V67.2141C200.868 67.4342 201.04 67.6132 201.252 67.6132C201.463 67.6132 201.635 67.4342 201.635 67.2141V61.0277C201.635 60.8075 201.463 60.6285 201.252 60.6285Z" fill="#3F3D56"/>
<path d="M201.252 69.4093C201.04 69.4093 200.868 69.5883 200.868 69.8084V75.9949C200.868 76.215 201.04 76.394 201.252 76.394C201.463 76.394 201.635 76.215 201.635 75.9949V69.8084C201.635 69.5883 201.463 69.4093 201.252 69.4093Z" fill="#3F3D56"/>
<path d="M215.291 29.1975H207.937C207.901 29.1975 207.872 29.2276 207.872 29.2646V30.1282C207.872 30.1653 207.901 30.1953 207.937 30.1953H215.291C215.327 30.1953 215.356 30.1653 215.356 30.1282V29.2646C215.356 29.2276 215.327 29.1975 215.291 29.1975Z" fill="#E6E6E6"/>
<path d="M240.177 30.1953C240.601 30.1953 240.944 29.8379 240.944 29.397C240.944 28.9561 240.601 28.5988 240.177 28.5988C239.753 28.5988 239.409 28.9561 239.409 29.397C239.409 29.8379 239.753 30.1953 240.177 30.1953Z" fill="#E6E6E6"/>
<path d="M242.288 30.1953C242.712 30.1953 243.055 29.8379 243.055 29.397C243.055 28.9561 242.712 28.5988 242.288 28.5988C241.864 28.5988 241.52 28.9561 241.52 29.397C241.52 29.8379 241.864 30.1953 242.288 30.1953Z" fill="#E6E6E6"/>
<path d="M244.398 30.1953C244.822 30.1953 245.166 29.8379 245.166 29.397C245.166 28.9561 244.822 28.5988 244.398 28.5988C243.975 28.5988 243.631 28.9561 243.631 29.397C243.631 29.8379 243.975 30.1953 244.398 30.1953Z" fill="#E6E6E6"/>
<path d="M226.385 75.0609C232.417 75.0609 237.307 69.9757 237.307 63.7026C237.307 57.4296 232.417 52.3444 226.385 52.3444C220.353 52.3444 215.464 57.4296 215.464 63.7026C215.464 69.9757 220.353 75.0609 226.385 75.0609Z" fill="#00E7FF"/>
<path d="M227.04 106.504H178.419C176.462 106.504 174.869 104.847 174.869 102.812V64.5762C174.869 62.5408 176.462 60.8846 178.419 60.8846H227.04C228.997 60.8846 230.589 62.5408 230.589 64.5762V102.812C230.589 104.847 228.997 106.504 227.04 106.504Z" fill="white"/>
<path d="M227.04 106.504H178.419C176.462 106.504 174.869 104.847 174.869 102.812V64.5762C174.869 62.5408 176.462 60.8846 178.419 60.8846H227.04C228.997 60.8846 230.589 62.5408 230.589 64.5762V102.812C230.589 104.847 228.997 106.504 227.04 106.504ZM178.419 61.5011C176.789 61.5011 175.462 62.8807 175.462 64.5762V102.812C175.462 104.508 176.789 105.887 178.419 105.887H227.04C228.67 105.887 229.997 104.508 229.997 102.812V64.5762C229.997 62.8807 228.67 61.5011 227.04 61.5011H178.419Z" fill="#3F3D56"/>
<path d="M221.698 65.5082C222.189 65.5082 222.587 65.0942 222.587 64.5835C222.587 64.0728 222.189 63.6588 221.698 63.6588C221.207 63.6588 220.809 64.0728 220.809 64.5835C220.809 65.0942 221.207 65.5082 221.698 65.5082Z" fill="#3F3D56"/>
<path d="M224.069 65.5082C224.56 65.5082 224.958 65.0942 224.958 64.5835C224.958 64.0728 224.56 63.6588 224.069 63.6588C223.578 63.6588 223.18 64.0728 223.18 64.5835C223.18 65.0942 223.578 65.5082 224.069 65.5082Z" fill="#3F3D56"/>
<path d="M226.44 65.5082C226.931 65.5082 227.329 65.0942 227.329 64.5835C227.329 64.0728 226.931 63.6588 226.44 63.6588C225.949 63.6588 225.551 64.0728 225.551 64.5835C225.551 65.0942 225.949 65.5082 226.44 65.5082Z" fill="#3F3D56"/>
<path d="M179.908 79.533C179.663 79.533 179.463 79.7404 179.463 79.9953C179.463 80.1196 179.51 80.2346 179.593 80.3195C179.678 80.4095 179.789 80.4577 179.908 80.4577H225.847C226.093 80.4577 226.292 80.2503 226.292 79.9953C226.292 79.871 226.246 79.756 226.162 79.6711C226.077 79.5811 225.967 79.533 225.847 79.533H179.908Z" fill="#E6E6E6"/>
<path d="M217.549 79.3788V80.6117H179.908C179.745 80.6117 179.597 80.5439 179.49 80.4299C179.38 80.3189 179.315 80.1648 179.315 79.9953C179.315 79.6562 179.582 79.3788 179.908 79.3788L217.549 79.3788Z" fill="#00E7FF"/>
<path d="M225.106 77.0671H219.179C218.525 77.0671 217.993 76.5141 217.993 75.8341C217.993 75.1542 218.525 74.6012 219.179 74.6012H225.106C225.76 74.6012 226.292 75.1542 226.292 75.8341C226.292 76.5141 225.76 77.0671 225.106 77.0671Z" fill="#E6E6E6"/>
<path d="M186.28 70.5941H180.353C179.699 70.5941 179.167 70.0411 179.167 69.3611C179.167 68.6811 179.699 68.1282 180.353 68.1282H186.28C186.934 68.1282 187.466 68.6811 187.466 69.3611C187.466 70.0411 186.934 70.5941 186.28 70.5941Z" fill="#E6E6E6"/>
<path d="M179.908 93.4036C179.663 93.4036 179.463 93.611 179.463 93.8659C179.463 93.9902 179.51 94.1052 179.593 94.1901C179.678 94.2801 179.789 94.3283 179.908 94.3283H225.847C226.093 94.3283 226.292 94.1209 226.292 93.8659C226.292 93.7416 226.246 93.6266 226.162 93.5417C226.077 93.4517 225.967 93.4036 225.847 93.4036H179.908Z" fill="#E6E6E6"/>
<path d="M194.727 93.2494V94.4823H179.908C179.745 94.4823 179.597 94.4145 179.49 94.3005C179.38 94.1895 179.315 94.0354 179.315 93.8659C179.315 93.5268 179.582 93.2494 179.908 93.2494L194.727 93.2494Z" fill="#00E7FF"/>
<path d="M225.106 90.9377H219.179C218.525 90.9377 217.993 90.3847 217.993 89.7047C217.993 89.0248 218.525 88.4718 219.179 88.4718H225.106C225.76 88.4718 226.292 89.0248 226.292 89.7047C226.292 90.3847 225.76 90.9377 225.106 90.9377Z" fill="#E6E6E6"/>
</g>
<defs>
<clipPath id="clip0_19_2319">
<rect width="202.422" height="153.097" fill="white" transform="translate(0.599365 0.555664)"/>
</clipPath>
<clipPath id="clip1_19_2319">
<rect width="102.213" height="111.127" fill="white" transform="translate(174.562 26.7874)"/>
</clipPath>
</defs>
</svg>
