<svg width="25" height="25" viewBox="0 0 25 25" fill="none" xmlns="http://www.w3.org/2000/svg">
<path d="M4.29688 6.42108V18.5797C4.29688 19.7273 5.2 20.6305 6.34766 20.6305H18.5062C19.068 20.6305 19.6047 20.3617 19.9469 20.0203C20.3133 19.6539 20.557 19.1898 20.557 18.5797V6.42108C20.557 5.27343 19.6539 4.3703 18.5062 4.3703H6.34766C5.7375 4.3703 5.27344 4.61483 4.90703 4.98046C4.56484 5.32264 4.29688 5.85936 4.29688 6.42108ZM6.49453 8.03202C6.49453 7.25077 7.12969 6.56718 7.91094 6.56718C8.71641 6.56718 9.37578 7.25077 9.37578 8.03202C9.37578 8.83749 8.71641 9.47264 7.91094 9.47264C7.12969 9.47264 6.49453 8.83749 6.49453 8.03202ZM10.425 18.0664V10.6203C10.425 10.4492 10.5961 10.3031 10.718 10.3031H12.793C13.0859 10.3031 13.0859 10.6453 13.0859 10.8648C13.6719 10.2789 14.4289 10.132 15.2102 10.132C17.1148 10.132 18.3352 11.0351 18.3352 13.0375V18.0672C18.3352 18.2383 18.1883 18.3844 18.0422 18.3844H15.8938C15.7227 18.3844 15.6008 18.2133 15.6008 18.0672V13.5258C15.6008 12.7687 15.3812 12.3539 14.5266 12.3539C13.4523 12.3539 13.1836 13.0617 13.1836 14.0141V18.0672C13.1836 18.2383 13.0125 18.3844 12.8414 18.3844H10.7172C10.5953 18.3844 10.4242 18.2133 10.4242 18.0672L10.425 18.0664ZM6.54297 18.0664V10.6203C6.54297 10.4492 6.71406 10.3031 6.83594 10.3031H8.96016C9.15547 10.3031 9.27734 10.425 9.27734 10.6203V18.0664C9.27734 18.2375 9.13047 18.3836 8.96016 18.3836H6.83594C6.68906 18.3836 6.54297 18.2125 6.54297 18.0664Z" fill="#126D9F"/>
</svg>
