<svg width="252" height="61" viewBox="0 0 252 61" fill="none" xmlns="http://www.w3.org/2000/svg">
<g clip-path="url(#clip0_202_1299)">
<path fill-rule="evenodd" clip-rule="evenodd" d="M223.015 30.0064C222.864 29.7928 222.676 29.6003 222.453 29.4389C221.442 28.7046 220.039 28.8476 219.197 29.771L218.522 30.5106L218.505 30.5295C218.169 30.8952 217.759 31.1855 217.302 31.3814L217.279 31.3914L216.825 31.5843C216.413 31.7594 216.207 31.8469 216.134 31.989C216.086 32.0834 216.073 32.1922 216.099 32.2951C216.138 32.4498 216.319 32.5813 216.682 32.8443L220.995 35.9747C221.357 36.2377 221.538 36.3692 221.697 36.3582C221.803 36.351 221.903 36.3056 221.978 36.2306C222.091 36.1177 222.111 35.8949 222.15 35.4492L222.193 34.958L222.195 34.9327C222.231 34.5428 222.332 34.1624 222.493 33.807C221.535 33.0893 221.327 31.7333 222.034 30.7619C222.291 30.4081 222.635 30.1536 223.015 30.0064ZM223.459 31.2475C223.32 31.3079 223.195 31.4048 223.1 31.5358C222.855 31.873 222.885 32.3261 223.148 32.6276C223.393 32.1938 223.492 31.714 223.459 31.2475Z" fill="#0F0F0F"/>
<path d="M217.772 33.6356C217.67 33.7755 217.597 33.934 217.557 34.1021C217.516 34.2702 217.509 34.4446 217.536 34.6154C217.563 34.7862 217.624 34.95 217.714 35.0973C217.805 35.2448 217.923 35.3729 218.063 35.4746C218.203 35.5762 218.362 35.6493 218.53 35.6896C218.699 35.73 218.873 35.7369 219.044 35.7098C219.215 35.6828 219.379 35.6223 219.527 35.532C219.674 35.4417 219.803 35.3232 219.904 35.1833L218.838 34.4095L217.772 33.6356Z" fill="#0F0F0F"/>
<path d="M223.181 32.9504C223.678 33.298 224.363 33.1774 224.711 32.681C225.059 32.1846 224.938 31.5005 224.441 31.153C223.944 30.8054 223.259 30.9261 222.911 31.4224C222.563 31.9188 222.684 32.6029 223.181 32.9504Z" fill="#FF0000"/>
<path fill-rule="evenodd" clip-rule="evenodd" d="M224.131 31.5958C223.879 31.4195 223.531 31.4807 223.355 31.7325C223.178 31.9843 223.24 32.3313 223.492 32.5075C223.744 32.6838 224.091 32.6226 224.267 32.3709C224.444 32.1191 224.383 31.7721 224.131 31.5958ZM222.468 31.1123C222.987 30.3713 224.01 30.1913 224.751 30.7101C225.493 31.2289 225.673 32.2501 225.154 32.9911C224.635 33.732 223.612 33.9121 222.871 33.3933C222.129 32.8745 221.949 31.8532 222.468 31.1123Z" fill="#FF0000"/>
</g>
<g filter="url(#filter0_d_202_1299)">
<path d="M235.076 16.5773C237.153 17.9418 238.878 19.6357 240.15 21.559C241.421 23.4824 242.213 25.5963 242.478 27.776C242.517 28.1006 242.704 28.4008 243.001 28.6162C243.297 28.8316 243.682 28.9462 244.077 28.9367L246.478 28.8787C246.693 28.8737 246.903 28.8324 247.098 28.7574C247.292 28.6824 247.465 28.5753 247.607 28.4427C247.749 28.3101 247.857 28.1549 247.923 27.9867C247.989 27.8184 248.013 27.6407 247.993 27.4646C247.376 22.0888 244.276 17.1149 239.334 13.5745C234.392 10.034 227.988 8.1985 221.45 8.44864C221.236 8.45682 221.026 8.50116 220.833 8.57891C220.641 8.65667 220.469 8.7662 220.33 8.90072C220.191 9.03524 220.086 9.19191 220.023 9.36104C219.96 9.53016 219.94 9.70816 219.964 9.88402L220.231 11.8533C220.274 12.1763 220.463 12.4738 220.761 12.6863C221.059 12.8987 221.443 13.0103 221.837 12.9985C226.629 12.8351 231.33 14.1062 235.076 16.5773Z" fill="#00E7FF"/>
</g>
<g filter="url(#filter1_d_202_1299)">
<path d="M233.185 20.0168C229.735 17.7377 225.415 16.5438 220.996 16.6478C220.794 16.653 220.594 16.6928 220.411 16.7647C220.228 16.8367 220.065 16.9392 219.932 17.0657C219.799 17.1923 219.7 17.3402 219.64 17.5001C219.58 17.66 219.561 17.8284 219.584 17.9947L219.771 19.3724C219.811 19.6717 219.986 19.9478 220.26 20.1466C220.534 20.3453 220.889 20.4525 221.254 20.447C224.738 20.3963 228.121 21.4106 230.753 23.2947C233.385 25.1787 235.079 27.7993 235.509 30.652C235.552 30.9523 235.73 31.2284 236.007 31.4262C236.284 31.624 236.641 31.7292 237.007 31.7212L238.686 31.6812C238.888 31.6769 239.087 31.6381 239.271 31.5671C239.454 31.4961 239.617 31.3946 239.751 31.2689C239.884 31.1432 239.984 30.9961 240.045 30.8368C240.106 30.6775 240.127 30.5095 240.105 30.3434C239.831 28.3313 239.079 26.3835 237.892 24.6115C236.705 22.8395 235.105 21.2781 233.185 20.0168Z" fill="#00E7FF"/>
</g>
<g filter="url(#filter2_d_202_1299)">
<path d="M225.352 27.1135C226.963 28.1725 228.033 29.692 228.351 31.3711C228.391 31.6059 228.535 31.8201 228.755 31.9735C228.974 32.1268 229.254 32.2085 229.541 32.2033L230.186 32.1874C230.351 32.1833 230.514 32.1502 230.663 32.0905C230.811 32.0307 230.943 31.9456 231.049 31.8408C231.155 31.736 231.232 31.6138 231.277 31.4824C231.321 31.351 231.332 31.2132 231.307 31.0783C230.916 28.8849 229.583 26.8801 227.552 25.429C225.52 23.9779 222.924 23.1768 220.237 23.1717C220.074 23.1732 219.914 23.203 219.766 23.259C219.618 23.3151 219.486 23.3963 219.378 23.4972C219.271 23.5981 219.19 23.7166 219.142 23.8449C219.093 23.9732 219.078 24.1085 219.097 24.2419L219.169 24.7727C219.203 25.0081 219.341 25.2251 219.556 25.3827C219.77 25.5403 220.048 25.6275 220.335 25.6279C222.161 25.6487 223.927 26.1715 225.352 27.1135Z" fill="#00E7FF"/>
</g>
<g filter="url(#filter3_d_202_1299)">
<path d="M16.9244 8.15128C14.8469 9.51576 13.1217 11.2096 11.8503 13.133C10.579 15.0563 9.78729 17.1702 9.52194 19.35C9.48294 19.6745 9.29621 19.9748 8.99944 20.1902C8.70266 20.4056 8.31792 20.5201 7.92281 20.5107L5.52176 20.4526C5.3074 20.4476 5.09658 20.4063 4.90235 20.3313C4.70812 20.2563 4.53464 20.1492 4.39263 20.0167C4.25063 19.8841 4.14313 19.7289 4.0768 19.5606C4.01048 19.3924 3.98673 19.2147 4.00704 19.0385C4.6235 13.6627 7.72414 8.68888 12.666 5.1484C17.6079 1.60792 24.0118 -0.227553 30.5498 0.0225826C30.7641 0.0307622 30.974 0.0750993 31.1667 0.152857C31.3593 0.230614 31.5306 0.340139 31.6699 0.474663C31.8092 0.609187 31.9136 0.765852 31.9767 0.934979C32.0397 1.10411 32.0601 1.2821 32.0364 1.45797L31.7691 3.4234C31.7261 3.74634 31.5367 4.0439 31.2387 4.25633C30.9408 4.46876 30.5565 4.58032 30.163 4.56861C25.3708 4.4063 20.669 5.67871 16.9244 8.15128Z" fill="#00E7FF"/>
</g>
<g filter="url(#filter4_d_202_1299)">
<path d="M18.3085 10.9588C21.7593 8.67977 26.079 7.48582 30.4975 7.58982C30.7003 7.59502 30.8995 7.63485 31.0827 7.70679C31.2659 7.77873 31.4289 7.88121 31.5617 8.00777C31.6944 8.13434 31.7939 8.28223 31.8539 8.44212C31.9138 8.602 31.9329 8.77041 31.91 8.9367L31.723 10.3144C31.6825 10.6138 31.508 10.8898 31.2337 11.0886C30.9595 11.2874 30.6051 11.3945 30.2401 11.389C26.7562 11.3384 23.3728 12.3527 20.741 14.2367C18.1093 16.1208 16.4153 18.7414 15.9851 21.5941C15.9419 21.8943 15.7643 22.1704 15.4871 22.3682C15.2099 22.566 14.8531 22.6712 14.4868 22.6632L12.808 22.6233C12.6056 22.619 12.4065 22.5801 12.2232 22.5091C12.0399 22.4382 11.8765 22.3366 11.7431 22.2109C11.6098 22.0852 11.5095 21.9381 11.4485 21.7788C11.3875 21.6195 11.3672 21.4516 11.3889 21.2855C11.6626 19.2734 12.4147 17.3256 13.602 15.5536C14.7894 13.7816 16.3887 12.2202 18.3085 10.9588Z" fill="#00E7FF"/>
</g>
<g filter="url(#filter5_d_202_1299)">
<path d="M24.7285 18.6874C23.1176 19.7464 22.0476 21.266 21.7304 22.9451C21.6894 23.1798 21.5457 23.3941 21.3264 23.5474C21.1071 23.7007 20.8273 23.7825 20.5399 23.7773L19.8948 23.7614C19.7295 23.7572 19.5671 23.7242 19.4184 23.6644C19.2697 23.6047 19.1381 23.5196 19.0322 23.4148C18.9263 23.3099 18.8485 23.1878 18.804 23.0563C18.7596 22.9249 18.7494 22.7872 18.7742 22.6523C19.165 20.4588 20.4975 18.4541 22.5292 17.0029C24.5608 15.5518 27.1565 14.7508 29.8437 14.7457C30.0066 14.7472 30.1672 14.7769 30.3152 14.833C30.4632 14.8891 30.5953 14.9702 30.7028 15.0711C30.8103 15.1721 30.8908 15.2905 30.9392 15.4188C30.9876 15.5471 31.0027 15.6824 30.9835 15.8158L30.9118 16.3466C30.8777 16.5821 30.7402 16.7991 30.5254 16.9566C30.3106 17.1142 30.0333 17.2014 29.7458 17.2019C27.9196 17.2226 26.154 17.7454 24.7285 18.6874Z" fill="#00E7FF"/>
</g>
<g clip-path="url(#clip1_202_1299)">
<path fill-rule="evenodd" clip-rule="evenodd" d="M26.6865 20.1321C26.4364 20.2097 26.195 20.3288 25.9726 20.4902C24.9609 21.2245 24.6637 22.6012 25.2825 23.6868L25.7782 24.5563L25.7908 24.5785C26.0352 25.0107 26.1849 25.4897 26.2304 25.984L26.2326 26.0094L26.2759 26.5005C26.3153 26.9462 26.3349 27.1691 26.4477 27.2819C26.5227 27.3569 26.6225 27.4023 26.7284 27.4096C26.8876 27.4205 27.0688 27.289 27.4312 27.026L31.7443 23.8956C32.1067 23.6326 32.2879 23.5011 32.3266 23.3465C32.3525 23.2436 32.3401 23.1348 32.2919 23.0403C32.2193 22.8983 32.0132 22.8108 31.601 22.6356L31.1468 22.4427L31.1234 22.4328C30.7633 22.2783 30.4323 22.065 30.1436 21.8023C29.1641 22.4911 27.8092 22.2687 27.1027 21.2974C26.8453 20.9435 26.7092 20.5386 26.6865 20.1321ZM28.0053 20.0938C28.02 20.2441 28.0737 20.3925 28.169 20.5235C28.4142 20.8607 28.8548 20.9723 29.2231 20.8158C28.8859 20.4487 28.4598 20.206 28.0053 20.0938Z" fill="#1B1919"/>
<path d="M28.5215 26.2346C28.6232 26.3745 28.7515 26.493 28.8991 26.5834C29.0467 26.6737 29.2106 26.7341 29.3816 26.7611C29.5525 26.7882 29.7271 26.7813 29.8954 26.741C30.0637 26.7006 30.2224 26.6276 30.3624 26.5259C30.5024 26.4243 30.621 26.2961 30.7115 26.1487C30.8019 26.0013 30.8624 25.8375 30.8894 25.6667C30.9165 25.496 30.9097 25.3215 30.8693 25.1535C30.8289 24.9853 30.7557 24.8268 30.654 24.6869L29.5877 25.4608L28.5215 26.2346Z" fill="#1B1919"/>
<path d="M29.5407 20.8838C30.0252 20.5192 30.122 19.8312 29.7569 19.3473C29.3919 18.8634 28.7032 18.7667 28.2188 19.1314C27.7344 19.496 27.6376 20.184 28.0026 20.6679C28.3677 21.1518 29.0563 21.2485 29.5407 20.8838Z" fill="#FF0000"/>
<path fill-rule="evenodd" clip-rule="evenodd" d="M28.5445 19.5632C28.2988 19.7481 28.2497 20.097 28.4349 20.3425C28.62 20.588 28.9693 20.637 29.215 20.452C29.4608 20.2671 29.5098 19.9181 29.3247 19.6727C29.1395 19.4272 28.7902 19.3782 28.5445 19.5632ZM27.5704 20.9932C27.0255 20.2709 27.17 19.244 27.8931 18.6996C28.6162 18.1552 29.6442 18.2996 30.1891 19.0219C30.7341 19.7443 30.5896 20.7712 29.8665 21.3156C29.1433 21.8599 28.1153 21.7156 27.5704 20.9932Z" fill="#FF0000"/>
</g>
<g filter="url(#filter6_d_202_1299)">
<path d="M38.4986 52.663L33.1003 34.1593L32.0881 30.8226V28.8003H38.4986L42.7161 46.1917H43.3909L46.5961 28.8003H55.4696L58.1013 41.9113L58.6411 46.1917H59.3159L63.4996 28.8003H69.8427V30.8226L68.8305 34.1593L63.4996 52.663H54.7611L51.2859 35.0693H50.5774L50.0038 39.1476L47.2372 52.663H38.4986Z" fill="#009EFF"/>
<path d="M75.9218 35.7771L71.6369 31.463L75.9218 27.1825L80.2068 31.463L75.9218 35.7771ZM72.8853 52.663V41.5069L72.1768 38.8105L72.8515 36.7545H78.9584V52.663H72.8853Z" fill="#009EFF"/>
<path d="M82.3996 38.8105L83.4455 36.7545H88.4727V38.2038L88.7763 38.4061C89.0237 38.1814 89.3611 37.923 89.7885 37.6309C90.2384 37.3163 90.7782 37.0354 91.408 36.7882C92.0378 36.5411 92.7463 36.4175 93.5336 36.4175C95.8729 36.4175 97.5486 37.1927 98.5608 38.7431C98.9657 38.1814 99.573 37.6533 100.383 37.159C101.215 36.6422 102.362 36.3838 103.824 36.3838C105.849 36.3838 107.367 36.9568 108.379 38.1027C109.391 39.2487 109.897 40.8552 109.897 42.9224V47.2366L110.606 50.607L109.897 52.663H103.824V43.7987C103.824 42.9449 103.633 42.2933 103.251 41.8439C102.891 41.372 102.317 41.1361 101.53 41.1361C101.013 41.1361 100.563 41.3271 100.18 41.7091C99.7979 42.0911 99.6067 42.5742 99.6067 43.1584V52.663H93.5336V43.8324C93.5336 42.9786 93.3424 42.327 92.96 41.8776C92.6001 41.4057 92.0266 41.1698 91.2393 41.1698L89.1475 41.8102V52.663H83.0743V42.518L82.3996 38.8105Z" fill="#009EFF"/>
<path d="M118.704 53C117.737 53 116.837 52.8652 116.005 52.5956C115.195 52.3035 114.543 51.8091 114.048 51.1126C113.553 50.416 113.305 49.4498 113.305 48.214C113.305 47.0905 113.587 46.158 114.149 45.4165C114.711 44.6751 115.476 44.1246 116.443 43.765C117.41 43.4055 118.501 43.2258 119.716 43.2258C120.886 43.2258 121.763 43.3606 122.348 43.6302C122.932 43.8774 123.439 44.1358 123.866 44.4054L124.102 44.2032C124.102 43.5291 124.046 42.9674 123.933 42.518C123.821 42.0686 123.562 41.7315 123.157 41.5069C122.753 41.2597 122.123 41.1361 121.268 41.1361C120.436 41.1361 119.547 41.2147 118.603 41.372C117.68 41.5069 116.826 41.6866 116.038 41.9113C115.274 42.1135 114.7 42.3158 114.318 42.518V37.4623C115.015 37.2152 116.005 36.9905 117.287 36.7882C118.591 36.5636 120.188 36.4512 122.078 36.4512C124.102 36.4512 125.699 36.7096 126.869 37.2264C128.061 37.7207 128.916 38.451 129.433 39.4172C129.95 40.3609 130.209 41.4956 130.209 42.8213V47.304L130.884 50.7081L130.209 52.6967H124.44V51.0452L124.102 50.8766C123.922 51.0564 123.607 51.3148 123.157 51.6518C122.708 51.9889 122.111 52.3035 121.369 52.5956C120.627 52.8652 119.738 53 118.704 53ZM121.572 48.5848C122.179 48.5848 122.696 48.5286 123.124 48.4162C123.574 48.3039 123.9 48.2028 124.102 48.1129V47.4725C124.102 47.1804 123.888 46.8995 123.461 46.6299C123.056 46.3603 122.415 46.2255 121.538 46.2255C120.323 46.2255 119.716 46.6524 119.716 47.5062C119.716 47.8657 119.851 48.1354 120.121 48.3151C120.391 48.4949 120.874 48.5848 121.572 48.5848Z" fill="#009EFF"/>
<path d="M137.626 35.7771L133.341 31.463L137.626 27.1825L141.911 31.463L137.626 35.7771ZM134.589 52.663V41.5069L133.881 38.8105L134.555 36.7545H140.662V52.663H134.589Z" fill="#009EFF"/>
<path d="M144.778 52.663V42.518L144.103 38.8105L145.149 36.7545H150.176V38.2038L150.48 38.4061C150.728 38.1814 151.065 37.923 151.492 37.6309C151.942 37.3163 152.482 37.0354 153.112 36.7882C153.742 36.5411 154.45 36.4175 155.237 36.4175C157.262 36.4175 158.78 36.9905 159.792 38.1364C160.804 39.2824 161.31 40.8889 161.31 42.9561V47.2366L162.019 50.607L161.31 52.663H155.237V43.8324C155.237 42.9786 155.046 42.327 154.664 41.8776C154.304 41.4057 153.73 41.1698 152.943 41.1698L150.851 41.8102V52.663H144.778Z" fill="#009EFF"/>
<path d="M170.839 53C169.782 53 168.759 52.7304 167.769 52.1911C166.802 51.6518 166.003 50.798 165.373 49.6296C164.744 48.4612 164.429 46.9332 164.429 45.0458C164.429 42.9561 164.732 41.2822 165.34 40.0239C165.97 38.7656 166.779 37.8556 167.769 37.2938C168.759 36.7096 169.782 36.4175 170.839 36.4175C172.436 36.4175 173.561 36.5523 174.213 36.822C174.888 37.0916 175.225 37.2264 175.225 37.2264L174.888 30.8563L175.225 28.834H181.332V47.2703L182.007 50.6407L181.332 52.6967H175.563V51.0452L175.225 50.8766C175.225 50.8766 175.057 51.0564 174.719 51.4159C174.382 51.753 173.887 52.1012 173.235 52.4607C172.582 52.8203 171.784 53 170.839 53ZM173.37 48.2477L175.225 47.7759V42.855C175.225 42.3382 175.057 41.9338 174.719 41.6417C174.382 41.3271 173.932 41.1698 173.37 41.1698C172.537 41.1698 171.908 41.4507 171.48 42.0124C171.053 42.5517 170.839 43.4505 170.839 44.7088C170.839 45.9446 171.087 46.8434 171.582 47.4051C172.076 47.9668 172.672 48.2477 173.37 48.2477Z" fill="#009EFF"/>
<path d="M193.476 53C191.744 53 190.204 52.7416 188.854 52.2248C187.504 51.708 186.447 50.8429 185.683 49.6296C184.918 48.4162 184.535 46.776 184.535 44.7088C184.535 43.2258 184.783 41.9562 185.278 40.9002C185.795 39.8441 186.481 38.9903 187.336 38.3386C188.191 37.6646 189.146 37.1815 190.204 36.8894C191.261 36.5748 192.352 36.4175 193.476 36.4175C195.411 36.4175 196.895 36.6085 197.93 36.9905C198.987 37.3725 199.684 37.6758 200.022 37.9005L201.709 43.2595L201.034 45.3491H190.575C190.732 46.1805 191.148 46.8771 191.823 47.4388C192.498 48.0005 193.611 48.2814 195.163 48.2814C196.378 48.2814 197.424 48.1466 198.301 47.877C199.178 47.6073 199.864 47.3714 200.359 47.1692V51.6855C199.684 52.0451 198.706 52.3596 197.424 52.6293C196.164 52.8764 194.848 53 193.476 53ZM190.609 43.1921L195.265 42.518L194.961 41.0687C194.803 40.9788 194.567 40.9114 194.252 40.8665C193.96 40.8215 193.701 40.7991 193.476 40.7991C192.847 40.7991 192.318 40.9339 191.891 41.2035C191.486 41.4731 191.171 41.799 190.946 42.1809C190.743 42.5405 190.631 42.8775 190.609 43.1921Z" fill="#009EFF"/>
<path d="M204.901 52.663V42.1135L204.193 38.7431L204.901 36.7208H209.49L210.165 37.496C210.165 37.496 210.322 37.4062 210.637 37.2264C210.952 37.0242 211.39 36.8332 211.953 36.6534C212.538 36.4737 213.212 36.3838 213.977 36.3838C214.427 36.3838 214.877 36.4175 215.327 36.4849C215.777 36.5523 216.125 36.6422 216.373 36.7545L218.566 38.6083L216.373 42.9224L211.919 41.0687L210.907 41.4057V52.663H204.901Z" fill="#009EFF"/>
</g>
<defs>
<filter id="filter0_d_202_1299" x="215.954" y="8.42606" width="36.046" height="28.5112" filterUnits="userSpaceOnUse" color-interpolation-filters="sRGB">
<feFlood flood-opacity="0" result="BackgroundImageFix"/>
<feColorMatrix in="SourceAlpha" type="matrix" values="0 0 0 0 0 0 0 0 0 0 0 0 0 0 0 0 0 0 127 0" result="hardAlpha"/>
<feOffset dy="4"/>
<feGaussianBlur stdDeviation="2"/>
<feComposite in2="hardAlpha" operator="out"/>
<feColorMatrix type="matrix" values="0 0 0 0 0 0 0 0 0 0 0 0 0 0 0 0 0 0 0.25 0"/>
<feBlend mode="normal" in2="BackgroundImageFix" result="effect1_dropShadow_202_1299"/>
<feBlend mode="normal" in="SourceGraphic" in2="effect1_dropShadow_202_1299" result="shape"/>
</filter>
<filter id="filter1_d_202_1299" x="215.574" y="16.6415" width="28.5389" height="23.0801" filterUnits="userSpaceOnUse" color-interpolation-filters="sRGB">
<feFlood flood-opacity="0" result="BackgroundImageFix"/>
<feColorMatrix in="SourceAlpha" type="matrix" values="0 0 0 0 0 0 0 0 0 0 0 0 0 0 0 0 0 0 127 0" result="hardAlpha"/>
<feOffset dy="4"/>
<feGaussianBlur stdDeviation="2"/>
<feComposite in2="hardAlpha" operator="out"/>
<feColorMatrix type="matrix" values="0 0 0 0 0 0 0 0 0 0 0 0 0 0 0 0 0 0 0.25 0"/>
<feBlend mode="normal" in2="BackgroundImageFix" result="effect1_dropShadow_202_1299"/>
<feBlend mode="normal" in="SourceGraphic" in2="effect1_dropShadow_202_1299" result="shape"/>
</filter>
<filter id="filter2_d_202_1299" x="215.089" y="23.1717" width="20.2306" height="17.0318" filterUnits="userSpaceOnUse" color-interpolation-filters="sRGB">
<feFlood flood-opacity="0" result="BackgroundImageFix"/>
<feColorMatrix in="SourceAlpha" type="matrix" values="0 0 0 0 0 0 0 0 0 0 0 0 0 0 0 0 0 0 127 0" result="hardAlpha"/>
<feOffset dy="4"/>
<feGaussianBlur stdDeviation="2"/>
<feComposite in2="hardAlpha" operator="out"/>
<feColorMatrix type="matrix" values="0 0 0 0 0 0 0 0 0 0 0 0 0 0 0 0 0 0 0.25 0"/>
<feBlend mode="normal" in2="BackgroundImageFix" result="effect1_dropShadow_202_1299"/>
<feBlend mode="normal" in="SourceGraphic" in2="effect1_dropShadow_202_1299" result="shape"/>
</filter>
<filter id="filter3_d_202_1299" x="0" y="0" width="36.046" height="28.5112" filterUnits="userSpaceOnUse" color-interpolation-filters="sRGB">
<feFlood flood-opacity="0" result="BackgroundImageFix"/>
<feColorMatrix in="SourceAlpha" type="matrix" values="0 0 0 0 0 0 0 0 0 0 0 0 0 0 0 0 0 0 127 0" result="hardAlpha"/>
<feOffset dy="4"/>
<feGaussianBlur stdDeviation="2"/>
<feComposite in2="hardAlpha" operator="out"/>
<feColorMatrix type="matrix" values="0 0 0 0 0 0 0 0 0 0 0 0 0 0 0 0 0 0 0.25 0"/>
<feBlend mode="normal" in2="BackgroundImageFix" result="effect1_dropShadow_202_1299"/>
<feBlend mode="normal" in="SourceGraphic" in2="effect1_dropShadow_202_1299" result="shape"/>
</filter>
<filter id="filter4_d_202_1299" x="7.38049" y="7.58356" width="28.5389" height="23.0801" filterUnits="userSpaceOnUse" color-interpolation-filters="sRGB">
<feFlood flood-opacity="0" result="BackgroundImageFix"/>
<feColorMatrix in="SourceAlpha" type="matrix" values="0 0 0 0 0 0 0 0 0 0 0 0 0 0 0 0 0 0 127 0" result="hardAlpha"/>
<feOffset dy="4"/>
<feGaussianBlur stdDeviation="2"/>
<feComposite in2="hardAlpha" operator="out"/>
<feColorMatrix type="matrix" values="0 0 0 0 0 0 0 0 0 0 0 0 0 0 0 0 0 0 0.25 0"/>
<feBlend mode="normal" in2="BackgroundImageFix" result="effect1_dropShadow_202_1299"/>
<feBlend mode="normal" in="SourceGraphic" in2="effect1_dropShadow_202_1299" result="shape"/>
</filter>
<filter id="filter5_d_202_1299" x="14.761" y="14.7457" width="20.2306" height="17.0318" filterUnits="userSpaceOnUse" color-interpolation-filters="sRGB">
<feFlood flood-opacity="0" result="BackgroundImageFix"/>
<feColorMatrix in="SourceAlpha" type="matrix" values="0 0 0 0 0 0 0 0 0 0 0 0 0 0 0 0 0 0 127 0" result="hardAlpha"/>
<feOffset dy="4"/>
<feGaussianBlur stdDeviation="2"/>
<feComposite in2="hardAlpha" operator="out"/>
<feColorMatrix type="matrix" values="0 0 0 0 0 0 0 0 0 0 0 0 0 0 0 0 0 0 0.25 0"/>
<feBlend mode="normal" in2="BackgroundImageFix" result="effect1_dropShadow_202_1299"/>
<feBlend mode="normal" in="SourceGraphic" in2="effect1_dropShadow_202_1299" result="shape"/>
</filter>
<filter id="filter6_d_202_1299" x="28.0881" y="27.1825" width="194.478" height="33.8175" filterUnits="userSpaceOnUse" color-interpolation-filters="sRGB">
<feFlood flood-opacity="0" result="BackgroundImageFix"/>
<feColorMatrix in="SourceAlpha" type="matrix" values="0 0 0 0 0 0 0 0 0 0 0 0 0 0 0 0 0 0 127 0" result="hardAlpha"/>
<feOffset dy="4"/>
<feGaussianBlur stdDeviation="2"/>
<feComposite in2="hardAlpha" operator="out"/>
<feColorMatrix type="matrix" values="0 0 0 0 0 0 0 0 0 0 0 0 0 0 0 0 0 0 0.25 0"/>
<feBlend mode="normal" in2="BackgroundImageFix" result="effect1_dropShadow_202_1299"/>
<feBlend mode="normal" in="SourceGraphic" in2="effect1_dropShadow_202_1299" result="shape"/>
</filter>
<clipPath id="clip0_202_1299">
<rect width="10.5398" height="10.5364" rx="3" transform="matrix(0.809309 0.587383 -0.588187 0.808725 218.963 25.2783)" fill="white"/>
</clipPath>
<clipPath id="clip1_202_1299">
<rect width="10.5398" height="10.5364" rx="3" transform="matrix(0.809309 -0.587383 0.588187 0.808725 20.933 22.5205)" fill="white"/>
</clipPath>
</defs>
</svg>
