<svg width="121" height="34" viewBox="0 0 121 34" fill="none" xmlns="http://www.w3.org/2000/svg">
<g clip-path="url(#clip0_5_529)">
<path fill-rule="evenodd" clip-rule="evenodd" d="M105.169 14.6214C105.099 14.5226 105.012 14.4336 104.909 14.359C104.442 14.0194 103.794 14.0856 103.405 14.5126L103.093 14.8546L103.085 14.8633C102.93 15.0324 102.741 15.1666 102.53 15.2572L102.519 15.2618L102.309 15.351C102.119 15.432 102.024 15.4725 101.99 15.5382C101.968 15.5818 101.962 15.6321 101.974 15.6797C101.992 15.7512 102.076 15.812 102.243 15.9336L104.236 17.3812C104.403 17.5028 104.487 17.5636 104.56 17.5585C104.609 17.5552 104.655 17.5342 104.69 17.4995C104.742 17.4473 104.751 17.3443 104.769 17.1382L104.789 16.9111L104.79 16.8994C104.807 16.7191 104.853 16.5432 104.928 16.3788C104.485 16.047 104.389 15.4199 104.716 14.9708C104.834 14.8071 104.993 14.6895 105.169 14.6214ZM105.374 15.1953C105.31 15.2232 105.252 15.268 105.208 15.3286C105.095 15.4845 105.109 15.694 105.23 15.8335C105.343 15.6329 105.389 15.411 105.374 15.1953Z" fill="#0F0F0F"/>
<path d="M102.747 16.2996C102.7 16.3642 102.666 16.4375 102.647 16.5153C102.629 16.593 102.626 16.6737 102.638 16.7526C102.651 16.8316 102.678 16.9073 102.72 16.9755C102.762 17.0437 102.817 17.1029 102.882 17.1499C102.946 17.1969 103.019 17.2307 103.097 17.2494C103.175 17.268 103.256 17.2712 103.335 17.2587C103.414 17.2462 103.489 17.2183 103.557 17.1765C103.626 17.1347 103.685 17.0799 103.732 17.0152L103.239 16.6574L102.747 16.2996Z" fill="#0F0F0F"/>
<path d="M105.245 15.9827C105.475 16.1435 105.791 16.0877 105.952 15.8582C106.113 15.6286 106.057 15.3123 105.827 15.1516C105.598 14.9909 105.282 15.0467 105.121 15.2762C104.96 15.5057 105.016 15.822 105.245 15.9827Z" fill="#FF0000"/>
<path fill-rule="evenodd" clip-rule="evenodd" d="M105.684 15.3564C105.568 15.2748 105.407 15.3031 105.326 15.4195C105.244 15.536 105.272 15.6964 105.389 15.7779C105.505 15.8595 105.666 15.8312 105.747 15.7147C105.829 15.5983 105.8 15.4379 105.684 15.3564ZM104.916 15.1328C105.156 14.7901 105.628 14.7069 105.971 14.9468C106.313 15.1867 106.397 15.6589 106.157 16.0015C105.917 16.3442 105.445 16.4274 105.102 16.1875C104.759 15.9476 104.676 15.4754 104.916 15.1328Z" fill="#FF0000"/>
</g>
<g filter="url(#filter0_d_5_529)">
<path d="M110.74 8.41165C111.7 9.0426 112.496 9.82586 113.084 10.7152C113.671 11.6046 114.037 12.5821 114.159 13.59C114.177 13.7401 114.264 13.8789 114.401 13.9785C114.538 14.0781 114.715 14.1311 114.898 14.1268L116.007 14.0999C116.106 14.0976 116.203 14.0785 116.293 14.0438C116.383 14.0091 116.463 13.9596 116.529 13.8983C116.594 13.837 116.644 13.7652 116.675 13.6874C116.705 13.6096 116.716 13.5275 116.707 13.446C116.422 10.9602 114.99 8.66024 112.707 7.02309C110.424 5.38594 107.466 4.5372 104.446 4.65287C104.347 4.65665 104.25 4.67715 104.161 4.71311C104.072 4.74906 103.993 4.79971 103.929 4.86191C103.864 4.92412 103.816 4.99656 103.787 5.07477C103.758 5.15297 103.748 5.23528 103.759 5.3166L103.883 6.22723C103.903 6.37656 103.99 6.51415 104.128 6.61238C104.265 6.71061 104.443 6.7622 104.625 6.75678C106.838 6.68122 109.01 7.26895 110.74 8.41165Z" fill="#00E7FF"/>
</g>
<g filter="url(#filter1_d_5_529)">
<path d="M109.867 10.0021C108.273 8.94824 106.277 8.39615 104.236 8.44424C104.143 8.44665 104.051 8.46506 103.966 8.49833C103.881 8.53159 103.806 8.57898 103.745 8.63751C103.683 8.69603 103.637 8.76442 103.61 8.83835C103.582 8.91228 103.573 8.99015 103.584 9.06705L103.67 9.70413C103.689 9.84254 103.77 9.9702 103.896 10.0621C104.023 10.154 104.187 10.2036 104.355 10.201C105.965 10.1776 107.527 10.6466 108.743 11.5178C109.959 12.389 110.741 13.6008 110.94 14.9199C110.96 15.0588 111.042 15.1864 111.17 15.2779C111.298 15.3694 111.463 15.418 111.632 15.4143L112.408 15.3959C112.501 15.3939 112.593 15.3759 112.678 15.3431C112.762 15.3103 112.838 15.2633 112.899 15.2052C112.961 15.1471 113.007 15.079 113.036 15.0054C113.064 14.9317 113.073 14.854 113.063 14.7772C112.937 13.8468 112.589 12.9461 112.041 12.1267C111.492 11.3074 110.754 10.5854 109.867 10.0021Z" fill="#00E7FF"/>
</g>
<g filter="url(#filter2_d_5_529)">
<path d="M106.249 13.2837C106.993 13.7734 107.487 14.476 107.633 15.2524C107.652 15.361 107.719 15.4601 107.82 15.531C107.921 15.6019 108.051 15.6397 108.183 15.6373L108.481 15.6299C108.558 15.628 108.633 15.6127 108.701 15.5851C108.77 15.5574 108.831 15.5181 108.88 15.4696C108.929 15.4212 108.965 15.3647 108.985 15.3039C109.006 15.2431 109.01 15.1794 108.999 15.1171C108.818 14.1028 108.203 13.1758 107.264 12.5047C106.326 11.8337 105.127 11.4633 103.886 11.461C103.81 11.4617 103.736 11.4754 103.668 11.5013C103.6 11.5273 103.539 11.5648 103.489 11.6115C103.439 11.6581 103.402 11.7129 103.38 11.7723C103.357 11.8316 103.35 11.8941 103.359 11.9558L103.392 12.2013C103.408 12.3101 103.472 12.4105 103.571 12.4833C103.67 12.5562 103.798 12.5965 103.931 12.5967C104.774 12.6063 105.59 12.8481 106.249 13.2837Z" fill="#00E7FF"/>
</g>
<g filter="url(#filter3_d_5_529)">
<path d="M9.97011 4.51538C9.01048 5.14633 8.21354 5.92958 7.62627 6.81896C7.039 7.70833 6.6733 8.68581 6.55073 9.69377C6.53271 9.84383 6.44646 9.98266 6.30937 10.0823C6.17228 10.1819 5.99456 10.2348 5.81205 10.2305L4.70294 10.2036C4.60392 10.2013 4.50654 10.1822 4.41682 10.1475C4.3271 10.1129 4.24696 10.0633 4.18137 10.002C4.11577 9.94073 4.06611 9.86896 4.03548 9.79116C4.00484 9.71336 3.99387 9.63119 4.00325 9.54975C4.28801 7.06392 5.72028 4.76397 8.00305 3.12682C10.2858 1.48967 13.244 0.640932 16.2641 0.756597C16.363 0.76038 16.46 0.780881 16.549 0.816837C16.638 0.852793 16.7171 0.903438 16.7815 0.965643C16.8458 1.02785 16.894 1.10029 16.9232 1.1785C16.9523 1.2567 16.9617 1.33901 16.9508 1.42033L16.8273 2.32917C16.8074 2.4785 16.7199 2.61609 16.5823 2.71432C16.4447 2.81255 16.2671 2.86414 16.0854 2.85872C13.8717 2.78367 11.6998 3.37204 9.97011 4.51538Z" fill="#00E7FF"/>
</g>
<g filter="url(#filter4_d_5_529)">
<path d="M10.6095 5.81361C12.2035 4.75975 14.1989 4.20766 16.2399 4.25575C16.3336 4.25816 16.4256 4.27657 16.5102 4.30984C16.5948 4.3431 16.6702 4.39049 16.7315 4.44901C16.7928 4.50754 16.8388 4.57593 16.8664 4.64986C16.8941 4.72379 16.903 4.80166 16.8924 4.87856L16.806 5.51563C16.7873 5.65405 16.7067 5.78171 16.58 5.87362C16.4533 5.96553 16.2896 6.01507 16.121 6.01254C14.5117 5.98911 12.9488 6.45813 11.7331 7.32933C10.5175 8.20053 9.73496 9.41232 9.53625 10.7314C9.51629 10.8703 9.43424 10.9979 9.3062 11.0894C9.17816 11.1809 9.01336 11.2295 8.84413 11.2258L8.06868 11.2074C7.97519 11.2054 7.88321 11.1874 7.79855 11.1546C7.71388 11.1218 7.63838 11.0748 7.57678 11.0167C7.51519 10.9586 7.46885 10.8905 7.44069 10.8169C7.41252 10.7432 7.40315 10.6655 7.41315 10.5888C7.53958 9.65833 7.88698 8.75765 8.43545 7.93826C8.98392 7.11887 9.7227 6.39688 10.6095 5.81361Z" fill="#00E7FF"/>
</g>
<g filter="url(#filter5_d_5_529)">
<path d="M13.5751 9.38739C12.8309 9.87708 12.3367 10.5797 12.1901 11.3562C12.1712 11.4647 12.1049 11.5638 12.0035 11.6347C11.9022 11.7056 11.773 11.7434 11.6402 11.741L11.3422 11.7336C11.2659 11.7317 11.1909 11.7164 11.1222 11.6888C11.0535 11.6612 10.9927 11.6218 10.9438 11.5733C10.8948 11.5249 10.8589 11.4684 10.8384 11.4076C10.8179 11.3468 10.8132 11.2832 10.8246 11.2208C11.0051 10.2065 11.6207 9.27948 12.5591 8.60846C13.4976 7.93745 14.6966 7.56705 15.9379 7.56468C16.0131 7.56537 16.0873 7.57913 16.1557 7.60506C16.2241 7.63099 16.2851 7.66851 16.3347 7.71518C16.3844 7.76186 16.4216 7.81664 16.4439 7.87597C16.4663 7.93529 16.4733 7.99784 16.4644 8.05954L16.4313 8.30497C16.4155 8.41385 16.352 8.51419 16.2528 8.58706C16.1536 8.65992 16.0255 8.70026 15.8927 8.70046C15.0491 8.71005 14.2335 8.95179 13.5751 9.38739Z" fill="#00E7FF"/>
</g>
<g clip-path="url(#clip1_5_529)">
<path fill-rule="evenodd" clip-rule="evenodd" d="M14.4795 10.0554C14.364 10.0913 14.2525 10.1463 14.1498 10.221C13.6824 10.5605 13.5451 11.1972 13.831 11.6991L14.0599 12.1012L14.0658 12.1114C14.1786 12.3113 14.2478 12.5328 14.2688 12.7614L14.2698 12.7731L14.2899 13.0002C14.308 13.2063 14.3171 13.3094 14.3692 13.3615C14.4039 13.3962 14.4499 13.4172 14.4989 13.4206C14.5724 13.4256 14.6561 13.3648 14.8235 13.2432L16.8159 11.7957C16.9832 11.6741 17.0669 11.6133 17.0848 11.5418C17.0968 11.4942 17.0911 11.4439 17.0688 11.4002C17.0353 11.3345 16.9401 11.294 16.7497 11.2131L16.5398 11.1239L16.529 11.1193C16.3627 11.0478 16.2098 10.9492 16.0764 10.8277C15.624 11.1462 14.9981 11.0434 14.6718 10.5942C14.5529 10.4306 14.49 10.2434 14.4795 10.0554ZM15.0887 10.0377C15.0955 10.1072 15.1203 10.1758 15.1643 10.2364C15.2776 10.3923 15.4811 10.4439 15.6512 10.3715C15.4955 10.2018 15.2986 10.0896 15.0887 10.0377Z" fill="#1B1919"/>
<path d="M15.3272 12.8773C15.3741 12.942 15.4334 12.9968 15.5016 13.0385C15.5697 13.0803 15.6455 13.1082 15.7244 13.1207C15.8034 13.1332 15.8841 13.1301 15.9618 13.1114C16.0395 13.0928 16.1128 13.059 16.1775 13.012C16.2422 12.965 16.297 12.9057 16.3388 12.8375C16.3805 12.7694 16.4085 12.6937 16.421 12.6147C16.4335 12.5357 16.4303 12.4551 16.4117 12.3773C16.393 12.2996 16.3592 12.2263 16.3122 12.1616L15.8197 12.5194L15.3272 12.8773Z" fill="#1B1919"/>
<path d="M15.798 10.403C16.0217 10.2344 16.0664 9.91628 15.8978 9.69251C15.7292 9.46874 15.4111 9.42404 15.1873 9.59266C14.9636 9.76128 14.9189 10.0794 15.0875 10.3032C15.2561 10.5269 15.5742 10.5716 15.798 10.403Z" fill="#FF0000"/>
<path fill-rule="evenodd" clip-rule="evenodd" d="M15.3378 9.7923C15.2243 9.87783 15.2016 10.0392 15.2871 10.1527C15.3727 10.2662 15.534 10.2889 15.6475 10.2033C15.761 10.1178 15.7837 9.95645 15.6982 9.84295C15.6126 9.72945 15.4513 9.70677 15.3378 9.7923ZM14.8878 10.4536C14.6361 10.1195 14.7028 9.6447 15.0369 9.39298C15.3709 9.14127 15.8458 9.208 16.0975 9.54204C16.3492 9.87608 16.2825 10.3509 15.9484 10.6026C15.6144 10.8544 15.1395 10.7876 14.8878 10.4536Z" fill="#FF0000"/>
</g>
<g filter="url(#filter6_d_5_529)">
<path d="M19.9358 25.098L17.4422 16.5417L16.9747 14.9988V14.0637H19.9358L21.884 22.1056H22.1957L23.6763 14.0637H27.7752L28.9908 20.1263L29.2402 22.1056H29.5519L31.4845 14.0637H34.4145V14.9988L33.9469 16.5417L31.4845 25.098H27.4479L25.8426 16.9625H25.5153L25.2504 18.8483L23.9724 25.098H19.9358Z" fill="#F0F0F0"/>
<path d="M37.2226 17.2898L35.2433 15.2949L37.2226 13.3156L39.2019 15.2949L37.2226 17.2898ZM35.8199 25.098V19.9393L35.4927 18.6925L35.8044 17.7418H38.6253V25.098H35.8199Z" fill="#F0F0F0"/>
<path d="M40.2148 18.6925L40.698 17.7418H43.0202V18.412L43.1604 18.5055C43.2747 18.4016 43.4306 18.2821 43.628 18.147C43.8358 18.0016 44.0852 17.8717 44.3761 17.7574C44.667 17.6431 44.9943 17.5859 45.3579 17.5859C46.4385 17.5859 47.2126 17.9444 47.6801 18.6613C47.8672 18.4016 48.1477 18.1574 48.5217 17.9288C48.9062 17.6899 49.4361 17.5704 50.1114 17.5704C51.0465 17.5704 51.7479 17.8353 52.2154 18.3652C52.683 18.8951 52.9167 19.638 52.9167 20.5939V22.5888L53.244 24.1473L52.9167 25.098H50.1114V20.9991C50.1114 20.6043 50.0231 20.303 49.8465 20.0952C49.6802 19.877 49.4153 19.7679 49.0516 19.7679C48.8127 19.7679 48.6048 19.8562 48.4282 20.0328C48.2516 20.2095 48.1633 20.4328 48.1633 20.703V25.098H45.3579V21.0147C45.3579 20.6199 45.2696 20.3185 45.093 20.1107C44.9267 19.8926 44.6618 19.7835 44.2981 19.7835L43.3319 20.0796V25.098H40.5265V20.4069L40.2148 18.6925Z" fill="#F0F0F0"/>
<path d="M56.9847 25.2539C56.5379 25.2539 56.1223 25.1915 55.7379 25.0668C55.3639 24.9318 55.0625 24.7032 54.834 24.3811C54.6054 24.059 54.4911 23.6122 54.4911 23.0408C54.4911 22.5213 54.621 22.0901 54.8807 21.7472C55.1405 21.4043 55.4937 21.1498 55.9405 20.9835C56.3873 20.8173 56.8912 20.7342 57.4523 20.7342C57.9926 20.7342 58.3978 20.7965 58.6679 20.9212C58.9381 21.0355 59.1718 21.155 59.3692 21.2796L59.4783 21.1861C59.4783 20.8744 59.4524 20.6147 59.4004 20.4069C59.3485 20.1991 59.229 20.0432 59.042 19.9393C58.8549 19.825 58.564 19.7679 58.1692 19.7679C57.7848 19.7679 57.3743 19.8042 56.938 19.877C56.512 19.9393 56.1171 20.0224 55.7535 20.1263C55.4002 20.2198 55.1353 20.3134 54.9586 20.4069V18.0691C55.2807 17.9548 55.7379 17.8509 56.3301 17.7574C56.9328 17.6535 57.6705 17.6015 58.5432 17.6015C59.4783 17.6015 60.216 17.721 60.7563 17.96C61.307 18.1886 61.7018 18.5263 61.9408 18.973C62.1798 19.4094 62.2993 19.9341 62.2993 20.5471V22.62L62.611 24.1941L62.2993 25.1136H59.6342V24.3499L59.4783 24.272C59.3952 24.3551 59.2498 24.4746 59.042 24.6304C58.8342 24.7863 58.5588 24.9318 58.2159 25.0668C57.8731 25.1915 57.4627 25.2539 56.9847 25.2539ZM58.3095 23.2122C58.59 23.2122 58.829 23.1862 59.0264 23.1343C59.2342 23.0823 59.3848 23.0356 59.4783 22.994V22.6979C59.4783 22.5628 59.3796 22.4329 59.1822 22.3083C58.9952 22.1836 58.6991 22.1212 58.2939 22.1212C57.7328 22.1212 57.4523 22.3186 57.4523 22.7135C57.4523 22.8797 57.5146 23.0044 57.6393 23.0875C57.764 23.1706 57.9874 23.2122 58.3095 23.2122Z" fill="#F0F0F0"/>
<path d="M65.7252 17.2898L63.7459 15.2949L65.7252 13.3156L67.7045 15.2949L65.7252 17.2898ZM64.3225 25.098V19.9393L63.9952 18.6925L64.3069 17.7418H67.1279V25.098H64.3225Z" fill="#F0F0F0"/>
<path d="M69.0291 25.098V20.4069L68.7174 18.6925L69.2006 17.7418H71.5228V18.412L71.663 18.5055C71.7773 18.4016 71.9332 18.2821 72.1306 18.147C72.3384 18.0016 72.5877 17.8717 72.8787 17.7574C73.1696 17.6431 73.4969 17.5859 73.8605 17.5859C74.7956 17.5859 75.497 17.8509 75.9645 18.3808C76.4321 18.9107 76.6659 19.6536 76.6659 20.6095V22.5888L76.9932 24.1473L76.6659 25.098H73.8605V21.0147C73.8605 20.6199 73.7722 20.3185 73.5956 20.1107C73.4293 19.8926 73.1644 19.7835 72.8007 19.7835L71.8345 20.0796V25.098H69.0291Z" fill="#F0F0F0"/>
<path d="M81.0675 25.2539C80.5791 25.2539 80.1064 25.1292 79.6492 24.8798C79.2024 24.6304 78.8336 24.2356 78.5427 23.6953C78.2517 23.155 78.1063 22.4485 78.1063 21.5758C78.1063 20.6095 78.2465 19.8354 78.5271 19.2536C78.818 18.6717 79.192 18.2509 79.6492 17.9912C80.1064 17.721 80.5791 17.5859 81.0675 17.5859C81.8052 17.5859 82.3247 17.6483 82.626 17.773C82.9377 17.8977 83.0935 17.96 83.0935 17.96L82.9377 15.0144L83.0935 14.0793H85.9144V22.6044L86.2261 24.1629L85.9144 25.1136H83.2494V24.3499L83.0935 24.272C83.0935 24.272 83.0156 24.3551 82.8597 24.5213C82.7039 24.6772 82.4753 24.8382 82.174 25.0045C81.8727 25.1707 81.5038 25.2539 81.0675 25.2539ZM82.2363 23.0563L83.0935 22.8382V20.5627C83.0935 20.3237 83.0156 20.1367 82.8597 20.0017C82.7039 19.8562 82.4961 19.7835 82.2363 19.7835C81.8519 19.7835 81.561 19.9133 81.3636 20.1731C81.1662 20.4225 81.0675 20.8381 81.0675 21.4199C81.0675 21.9914 81.1817 22.407 81.4103 22.6667C81.6389 22.9265 81.9143 23.0563 82.2363 23.0563Z" fill="#F0F0F0"/>
<path d="M91.5241 25.2539C90.7241 25.2539 90.0124 25.1344 89.389 24.8954C88.7656 24.6564 88.2772 24.2564 87.924 23.6953C87.5707 23.1343 87.3941 22.3758 87.3941 21.4199C87.3941 20.7342 87.5084 20.1471 87.7369 19.6588C87.9759 19.1704 88.2928 18.7756 88.6876 18.4743C89.0825 18.1626 89.524 17.9392 90.0124 17.8041C90.5007 17.6587 91.0046 17.5859 91.5241 17.5859C92.4177 17.5859 93.1034 17.6743 93.5814 17.8509C94.0697 18.0275 94.3918 18.1678 94.5477 18.2717L95.3269 20.7497L95.0152 21.716H90.1838C90.2565 22.1005 90.4488 22.4225 90.7605 22.6823C91.0722 22.9421 91.5865 23.0719 92.3034 23.0719C92.8645 23.0719 93.3476 23.0096 93.7528 22.8849C94.158 22.7602 94.4749 22.6511 94.7035 22.5576V24.646C94.3918 24.8123 93.9398 24.9577 93.3476 25.0824C92.7658 25.1967 92.1579 25.2539 91.5241 25.2539ZM90.1994 20.7186L92.3501 20.4069L92.2099 19.7367C92.1372 19.6951 92.0281 19.664 91.8826 19.6432C91.7475 19.6224 91.628 19.612 91.5241 19.612C91.2332 19.612 90.989 19.6744 90.7916 19.799C90.6046 19.9237 90.4591 20.0744 90.3553 20.251C90.2617 20.4173 90.2098 20.5731 90.1994 20.7186Z" fill="#F0F0F0"/>
<path d="M96.8015 25.098V20.2198L96.4742 18.6613L96.8015 17.7262H98.9211L99.2328 18.0847C99.2328 18.0847 99.3056 18.0431 99.451 17.96C99.5965 17.8665 99.7991 17.7782 100.059 17.695C100.329 17.6119 100.641 17.5704 100.994 17.5704C101.202 17.5704 101.41 17.5859 101.617 17.6171C101.825 17.6483 101.986 17.6899 102.1 17.7418L103.114 18.599L102.1 20.5939L100.043 19.7367L99.5757 19.8926V25.098H96.8015Z" fill="#F0F0F0"/>
</g>
<defs>
<filter id="filter0_d_5_529" x="99.7548" y="4.64243" width="20.9552" height="17.4846" filterUnits="userSpaceOnUse" color-interpolation-filters="sRGB">
<feFlood flood-opacity="0" result="BackgroundImageFix"/>
<feColorMatrix in="SourceAlpha" type="matrix" values="0 0 0 0 0 0 0 0 0 0 0 0 0 0 0 0 0 0 127 0" result="hardAlpha"/>
<feOffset dy="4"/>
<feGaussianBlur stdDeviation="2"/>
<feComposite in2="hardAlpha" operator="out"/>
<feColorMatrix type="matrix" values="0 0 0 0 0 0 0 0 0 0 0 0 0 0 0 0 0 0 0.25 0"/>
<feBlend mode="normal" in2="BackgroundImageFix" result="effect1_dropShadow_5_529"/>
<feBlend mode="normal" in="SourceGraphic" in2="effect1_dropShadow_5_529" result="shape"/>
</filter>
<filter id="filter1_d_5_529" x="99.5795" y="8.44135" width="17.4875" height="14.9732" filterUnits="userSpaceOnUse" color-interpolation-filters="sRGB">
<feFlood flood-opacity="0" result="BackgroundImageFix"/>
<feColorMatrix in="SourceAlpha" type="matrix" values="0 0 0 0 0 0 0 0 0 0 0 0 0 0 0 0 0 0 127 0" result="hardAlpha"/>
<feOffset dy="4"/>
<feGaussianBlur stdDeviation="2"/>
<feComposite in2="hardAlpha" operator="out"/>
<feColorMatrix type="matrix" values="0 0 0 0 0 0 0 0 0 0 0 0 0 0 0 0 0 0 0.25 0"/>
<feBlend mode="normal" in2="BackgroundImageFix" result="effect1_dropShadow_5_529"/>
<feBlend mode="normal" in="SourceGraphic" in2="effect1_dropShadow_5_529" result="shape"/>
</filter>
<filter id="filter2_d_5_529" x="99.3554" y="11.461" width="13.6496" height="12.1764" filterUnits="userSpaceOnUse" color-interpolation-filters="sRGB">
<feFlood flood-opacity="0" result="BackgroundImageFix"/>
<feColorMatrix in="SourceAlpha" type="matrix" values="0 0 0 0 0 0 0 0 0 0 0 0 0 0 0 0 0 0 127 0" result="hardAlpha"/>
<feOffset dy="4"/>
<feGaussianBlur stdDeviation="2"/>
<feComposite in2="hardAlpha" operator="out"/>
<feColorMatrix type="matrix" values="0 0 0 0 0 0 0 0 0 0 0 0 0 0 0 0 0 0 0.25 0"/>
<feBlend mode="normal" in2="BackgroundImageFix" result="effect1_dropShadow_5_529"/>
<feBlend mode="normal" in="SourceGraphic" in2="effect1_dropShadow_5_529" result="shape"/>
</filter>
<filter id="filter3_d_5_529" x="0" y="0.746155" width="20.9552" height="17.4846" filterUnits="userSpaceOnUse" color-interpolation-filters="sRGB">
<feFlood flood-opacity="0" result="BackgroundImageFix"/>
<feColorMatrix in="SourceAlpha" type="matrix" values="0 0 0 0 0 0 0 0 0 0 0 0 0 0 0 0 0 0 127 0" result="hardAlpha"/>
<feOffset dy="4"/>
<feGaussianBlur stdDeviation="2"/>
<feComposite in2="hardAlpha" operator="out"/>
<feColorMatrix type="matrix" values="0 0 0 0 0 0 0 0 0 0 0 0 0 0 0 0 0 0 0.25 0"/>
<feBlend mode="normal" in2="BackgroundImageFix" result="effect1_dropShadow_5_529"/>
<feBlend mode="normal" in="SourceGraphic" in2="effect1_dropShadow_5_529" result="shape"/>
</filter>
<filter id="filter4_d_5_529" x="3.40927" y="4.25285" width="17.4875" height="14.9732" filterUnits="userSpaceOnUse" color-interpolation-filters="sRGB">
<feFlood flood-opacity="0" result="BackgroundImageFix"/>
<feColorMatrix in="SourceAlpha" type="matrix" values="0 0 0 0 0 0 0 0 0 0 0 0 0 0 0 0 0 0 127 0" result="hardAlpha"/>
<feOffset dy="4"/>
<feGaussianBlur stdDeviation="2"/>
<feComposite in2="hardAlpha" operator="out"/>
<feColorMatrix type="matrix" values="0 0 0 0 0 0 0 0 0 0 0 0 0 0 0 0 0 0 0.25 0"/>
<feBlend mode="normal" in2="BackgroundImageFix" result="effect1_dropShadow_5_529"/>
<feBlend mode="normal" in="SourceGraphic" in2="effect1_dropShadow_5_529" result="shape"/>
</filter>
<filter id="filter5_d_5_529" x="6.8185" y="7.56468" width="13.6496" height="12.1764" filterUnits="userSpaceOnUse" color-interpolation-filters="sRGB">
<feFlood flood-opacity="0" result="BackgroundImageFix"/>
<feColorMatrix in="SourceAlpha" type="matrix" values="0 0 0 0 0 0 0 0 0 0 0 0 0 0 0 0 0 0 127 0" result="hardAlpha"/>
<feOffset dy="4"/>
<feGaussianBlur stdDeviation="2"/>
<feComposite in2="hardAlpha" operator="out"/>
<feColorMatrix type="matrix" values="0 0 0 0 0 0 0 0 0 0 0 0 0 0 0 0 0 0 0.25 0"/>
<feBlend mode="normal" in2="BackgroundImageFix" result="effect1_dropShadow_5_529"/>
<feBlend mode="normal" in="SourceGraphic" in2="effect1_dropShadow_5_529" result="shape"/>
</filter>
<filter id="filter6_d_5_529" x="12.9747" y="13.3156" width="94.1389" height="19.9382" filterUnits="userSpaceOnUse" color-interpolation-filters="sRGB">
<feFlood flood-opacity="0" result="BackgroundImageFix"/>
<feColorMatrix in="SourceAlpha" type="matrix" values="0 0 0 0 0 0 0 0 0 0 0 0 0 0 0 0 0 0 127 0" result="hardAlpha"/>
<feOffset dy="4"/>
<feGaussianBlur stdDeviation="2"/>
<feComposite in2="hardAlpha" operator="out"/>
<feColorMatrix type="matrix" values="0 0 0 0 0 0 0 0 0 0 0 0 0 0 0 0 0 0 0.25 0"/>
<feBlend mode="normal" in2="BackgroundImageFix" result="effect1_dropShadow_5_529"/>
<feBlend mode="normal" in="SourceGraphic" in2="effect1_dropShadow_5_529" result="shape"/>
</filter>
<clipPath id="clip0_5_529">
<rect x="103.297" y="12.4351" width="4.87037" height="4.87037" rx="2.43518" transform="rotate(36 103.297 12.4351)" fill="white"/>
</clipPath>
<clipPath id="clip1_5_529">
<rect x="11.8218" y="11.1598" width="4.87037" height="4.87037" rx="2.43518" transform="rotate(-36 11.8218 11.1598)" fill="white"/>
</clipPath>
</defs>
</svg>
