<svg width="30" height="30" viewBox="0 0 30 30" fill="none" xmlns="http://www.w3.org/2000/svg">
<path fill-rule="evenodd" clip-rule="evenodd" d="M2.14285 7.5C0.9594 7.5 0 6.3807 0 5C0 3.6193 0.9594 2.5 2.14285 2.5H27.8573C29.0405 2.5 30 3.6193 30 5C30 6.3807 29.0405 7.5 27.8573 7.5H2.14285ZM2.14285 17.5C0.9594 17.5 0 16.3807 0 15C0 13.6193 0.9594 12.5 2.14285 12.5H27.8573C29.0405 12.5 30 13.6193 30 15C30 16.3807 29.0405 17.5 27.8573 17.5H2.14285ZM2.14285 27.5C0.9594 27.5 0 26.3808 0 25C0 23.6192 0.9594 22.5 2.14285 22.5H27.8573C29.0405 22.5 30 23.6192 30 25C30 26.3808 29.0405 27.5 27.8573 27.5H2.14285Z" fill="#F0F0F0"/>
</svg>
