<svg width="22" height="22" viewBox="0 0 22 22" fill="none" xmlns="http://www.w3.org/2000/svg">
<path fill-rule="evenodd" clip-rule="evenodd" d="M1.83337 11C1.83337 5.9374 5.93743 1.83334 11 1.83334C16.0626 1.83334 20.1667 5.9374 20.1667 11C20.1667 16.0626 16.0626 20.1667 11 20.1667C5.93743 20.1667 1.83337 16.0626 1.83337 11ZM11.2685 13.1018C10.9106 13.4598 10.9106 14.0402 11.2685 14.3982C11.6265 14.7561 12.2069 14.7561 12.5649 14.3982L15.2351 11.7279C15.2489 11.7142 15.2623 11.7001 15.2751 11.6857C15.4642 11.5177 15.5834 11.2728 15.5834 11C15.5834 10.7272 15.4642 10.4823 15.2751 10.3143C15.2623 10.3 15.2489 10.2858 15.2351 10.2721L12.5649 7.60183C12.2069 7.24385 11.6265 7.24385 11.2685 7.60183C10.9106 7.95981 10.9106 8.54021 11.2685 8.89819L12.4537 10.0833H7.33337C6.82712 10.0833 6.41671 10.4937 6.41671 11C6.41671 11.5063 6.82712 11.9167 7.33337 11.9167H12.4537L11.2685 13.1018Z" fill="#00E009"/>
</svg>
