<svg width="30" height="30" viewBox="0 0 30 30" fill="none" xmlns="http://www.w3.org/2000/svg">
<path d="M20 5H23.75C24.413 5 25.0489 5.26339 25.5178 5.73223C25.9866 6.20107 26.25 6.83696 26.25 7.5V8.75M20 25H23.75C24.413 25 25.0489 24.7366 25.5178 24.2678C25.9866 23.7989 26.25 23.163 26.25 22.5V21.25M11.2513 15H11.25M20 15H26.25M26.25 15L23.75 12.5M26.25 15L23.75 17.5M5.53125 24.285L13.0313 26.535C13.4046 26.6471 13.799 26.6703 14.1829 26.6028C14.5668 26.5353 14.9297 26.3789 15.2424 26.1462C15.5551 25.9135 15.8091 25.6109 15.9841 25.2626C16.159 24.9142 16.2501 24.5298 16.25 24.14V5.86C16.2501 5.47019 16.159 5.08576 15.9841 4.73741C15.8091 4.38907 15.5551 4.08646 15.2424 3.85376C14.9297 3.62106 14.5668 3.46472 14.1829 3.39722C13.799 3.32972 13.4046 3.35293 13.0313 3.465L5.53125 5.715C5.01628 5.86958 4.56486 6.18607 4.24399 6.6175C3.92311 7.04894 3.74988 7.57232 3.75 8.11V21.89C3.74988 22.4277 3.92311 22.9511 4.24399 23.3825C4.56486 23.8139 5.01628 24.1304 5.53125 24.285Z" stroke="#ED3434" stroke-width="2" stroke-linecap="round" stroke-linejoin="round"/>
</svg>
