<svg width="30" height="30" viewBox="0 0 30 30" fill="none" xmlns="http://www.w3.org/2000/svg">
<path opacity="0.34" d="M15 18.75C17.0711 18.75 18.75 17.0711 18.75 15C18.75 12.9289 17.0711 11.25 15 11.25C12.9289 11.25 11.25 12.9289 11.25 15C11.25 17.0711 12.9289 18.75 15 18.75Z" stroke="#00E7FF" stroke-width="1.75" stroke-miterlimit="10" stroke-linecap="round" stroke-linejoin="round"/>
<path d="M2.5 16.0999V13.8999C2.5 12.5999 3.5625 11.5249 4.875 11.5249C7.1375 11.5249 8.0625 9.92492 6.925 7.96242C6.275 6.83742 6.6625 5.37492 7.8 4.72492L9.9625 3.48742C10.95 2.89992 12.225 3.24992 12.8125 4.23742L12.95 4.47492C14.075 6.43742 15.925 6.43742 17.0625 4.47492L17.2 4.23742C17.7875 3.24992 19.0625 2.89992 20.05 3.48742L22.2125 4.72492C23.35 5.37492 23.7375 6.83742 23.0875 7.96242C21.95 9.92492 22.875 11.5249 25.1375 11.5249C26.4375 11.5249 27.5125 12.5874 27.5125 13.8999V16.0999C27.5125 17.3999 26.45 18.4749 25.1375 18.4749C22.875 18.4749 21.95 20.0749 23.0875 22.0374C23.7375 23.1749 23.35 24.6249 22.2125 25.2749L20.05 26.5124C19.0625 27.0999 17.7875 26.7499 17.2 25.7624L17.0625 25.5249C15.9375 23.5624 14.0875 23.5624 12.95 25.5249L12.8125 25.7624C12.225 26.7499 10.95 27.0999 9.9625 26.5124L7.8 25.2749C6.6625 24.6249 6.275 23.1624 6.925 22.0374C8.0625 20.0749 7.1375 18.4749 4.875 18.4749C3.5625 18.4749 2.5 17.3999 2.5 16.0999Z" stroke="white" stroke-width="1.75" stroke-miterlimit="10" stroke-linecap="round" stroke-linejoin="round"/>
</svg>
